<?xml version="1.0" encoding="UTF-8" standalone="no"?>
<!DOCTYPE svg PUBLIC "-//W3C//DTD SVG 1.1//EN"
 "http://www.w3.org/Graphics/SVG/1.1/DTD/svg11.dtd">
<!-- Generated by graphviz version 5.0.0 (20220707.1540)
 -->
<!-- Title: dependencies Pages: 1 -->
<svg width="755pt" height="174pt"
 viewBox="0.00 0.00 755.00 173.80" xmlns="http://www.w3.org/2000/svg" xmlns:xlink="http://www.w3.org/1999/xlink">
<g id="graph0" class="graph" transform="scale(1 1) rotate(0) translate(4 169.8)">
<title>dependencies</title>
<polygon fill="white" stroke="transparent" points="-4,4 -4,-169.8 751,-169.8 751,4 -4,4"/>
<text text-anchor="middle" x="373.5" y="-8.2" font-family="sans-serif" font-size="14.00">dependencies</text>
<g id="clust1" class="cluster">
<title>cluster_AccountModule</title>
<polygon fill="none" stroke="black" stroke-dasharray="1,5" points="8,-32.8 8,-157.8 739,-157.8 739,-32.8 8,-32.8"/>
</g>
<g id="clust2" class="cluster">
<title>cluster_AccountModule_declarations</title>
<polygon fill="none" stroke="black" points="308,-40.8 308,-92.8 731,-92.8 731,-40.8 308,-40.8"/>
</g>
<g id="clust6" class="cluster">
<title>cluster_AccountModule_imports</title>
<polygon fill="none" stroke="black" points="16,-40.8 16,-92.8 300,-92.8 300,-40.8 16,-40.8"/>
</g>
<!-- AccountComponent -->
<g id="node1" class="node">
<title>AccountComponent</title>
<polygon fill="#ffffb3" stroke="black" points="723.26,-84.8 594.74,-84.8 594.74,-48.8 723.26,-48.8 723.26,-84.8"/>
<text text-anchor="middle" x="659" y="-62.6" font-family="Times,serif" font-size="14.00">AccountComponent</text>
</g>
<!-- AccountModule -->
<g id="node4" class="node">
<title>AccountModule</title>
<polygon fill="#8dd3c7" stroke="black" points="433.48,-149.8 430.48,-153.8 409.48,-153.8 406.48,-149.8 326.52,-149.8 326.52,-113.8 433.48,-113.8 433.48,-149.8"/>
<text text-anchor="middle" x="380" y="-127.6" font-family="Times,serif" font-size="14.00">AccountModule</text>
</g>
<!-- AccountComponent&#45;&gt;AccountModule -->
<g id="edge1" class="edge">
<title>AccountComponent&#45;&gt;AccountModule</title>
<path fill="none" stroke="black" d="M659,-85.08C659,-106.12 659,-137.8 659,-137.8 659,-137.8 443.79,-137.8 443.79,-137.8"/>
<polygon fill="black" stroke="black" points="443.79,-134.3 433.79,-137.8 443.79,-141.3 443.79,-134.3"/>
</g>
<!-- LoginComponent -->
<g id="node2" class="node">
<title>LoginComponent</title>
<polygon fill="#ffffb3" stroke="black" points="576.27,-84.8 461.73,-84.8 461.73,-48.8 576.27,-48.8 576.27,-84.8"/>
<text text-anchor="middle" x="519" y="-62.6" font-family="Times,serif" font-size="14.00">LoginComponent</text>
</g>
<!-- LoginComponent&#45;&gt;AccountModule -->
<g id="edge2" class="edge">
<title>LoginComponent&#45;&gt;AccountModule</title>
<path fill="none" stroke="black" d="M519,-84.82C519,-102.17 519,-125.8 519,-125.8 519,-125.8 443.74,-125.8 443.74,-125.8"/>
<polygon fill="black" stroke="black" points="443.74,-122.3 433.74,-125.8 443.74,-129.3 443.74,-122.3"/>
</g>
<!-- RegisterComponent -->
<g id="node3" class="node">
<title>RegisterComponent</title>
<polygon fill="#ffffb3" stroke="black" points="443.99,-84.8 316.01,-84.8 316.01,-48.8 443.99,-48.8 443.99,-84.8"/>
<text text-anchor="middle" x="380" y="-62.6" font-family="Times,serif" font-size="14.00">RegisterComponent</text>
</g>
<!-- RegisterComponent&#45;&gt;AccountModule -->
<g id="edge3" class="edge">
<title>RegisterComponent&#45;&gt;AccountModule</title>
<path fill="none" stroke="black" d="M380,-84.91C380,-84.91 380,-103.79 380,-103.79"/>
<polygon fill="black" stroke="black" points="376.5,-103.79 380,-113.79 383.5,-103.79 376.5,-103.79"/>
</g>
<!-- AccountRoutingModule -->
<g id="node5" class="node">
<title>AccountRoutingModule</title>
<polygon fill="#8dd3c7" stroke="black" points="292.1,-84.8 289.1,-88.8 268.1,-88.8 265.1,-84.8 139.9,-84.8 139.9,-48.8 292.1,-48.8 292.1,-84.8"/>
<text text-anchor="middle" x="216" y="-62.6" font-family="Times,serif" font-size="14.00">AccountRoutingModule</text>
</g>
<!-- AccountRoutingModule&#45;&gt;AccountModule -->
<g id="edge4" class="edge">
<title>AccountRoutingModule&#45;&gt;AccountModule</title>
<path fill="none" stroke="black" d="M216,-84.82C216,-102.17 216,-125.8 216,-125.8 216,-125.8 316.3,-125.8 316.3,-125.8"/>
<polygon fill="black" stroke="black" points="316.3,-129.3 326.3,-125.8 316.3,-122.3 316.3,-129.3"/>
</g>
<!-- SharedModule -->
<g id="node6" class="node">
<title>SharedModule</title>
<polygon fill="#8dd3c7" stroke="black" points="122.43,-84.8 119.43,-88.8 98.43,-88.8 95.43,-84.8 23.57,-84.8 23.57,-48.8 122.43,-48.8 122.43,-84.8"/>
<text text-anchor="middle" x="73" y="-62.6" font-family="Times,serif" font-size="14.00">SharedModule</text>
</g>
<!-- SharedModule&#45;&gt;AccountModule -->
<g id="edge5" class="edge">
<title>SharedModule&#45;&gt;AccountModule</title>
<path fill="none" stroke="black" d="M73,-85.08C73,-106.12 73,-137.8 73,-137.8 73,-137.8 316.17,-137.8 316.17,-137.8"/>
<polygon fill="black" stroke="black" points="316.17,-141.3 326.17,-137.8 316.17,-134.3 316.17,-141.3"/>
</g>
</g>
</svg>
