<?xml version="1.0" encoding="UTF-8" standalone="no"?>
<!DOCTYPE svg PUBLIC "-//W3C//DTD SVG 1.1//EN"
 "http://www.w3.org/Graphics/SVG/1.1/DTD/svg11.dtd">
<!-- Generated by graphviz version 5.0.0 (20220707.1540)
 -->
<!-- Title: dependencies Pages: 1 -->
<svg width="791pt" height="174pt"
 viewBox="0.00 0.00 791.00 173.80" xmlns="http://www.w3.org/2000/svg" xmlns:xlink="http://www.w3.org/1999/xlink">
<g id="graph0" class="graph" transform="scale(1 1) rotate(0) translate(4 169.8)">
<title>dependencies</title>
<polygon fill="white" stroke="transparent" points="-4,4 -4,-169.8 787,-169.8 787,4 -4,4"/>
<text text-anchor="middle" x="391.5" y="-8.2" font-family="sans-serif" font-size="14.00">dependencies</text>
<g id="clust1" class="cluster">
<title>cluster_ShopModule</title>
<polygon fill="none" stroke="black" stroke-dasharray="1,5" points="8,-32.8 8,-157.8 775,-157.8 775,-32.8 8,-32.8"/>
</g>
<g id="clust2" class="cluster">
<title>cluster_ShopModule_declarations</title>
<polygon fill="none" stroke="black" points="290,-40.8 290,-92.8 767,-92.8 767,-40.8 290,-40.8"/>
</g>
<g id="clust6" class="cluster">
<title>cluster_ShopModule_imports</title>
<polygon fill="none" stroke="black" points="16,-40.8 16,-92.8 282,-92.8 282,-40.8 16,-40.8"/>
</g>
<!-- ProductDetailsComponent -->
<g id="node1" class="node">
<title>ProductDetailsComponent</title>
<polygon fill="#ffffb3" stroke="black" points="759.04,-84.8 594.96,-84.8 594.96,-48.8 759.04,-48.8 759.04,-84.8"/>
<text text-anchor="middle" x="677" y="-62.6" font-family="Times,serif" font-size="14.00">ProductDetailsComponent</text>
</g>
<!-- ShopModule -->
<g id="node4" class="node">
<title>ShopModule</title>
<polygon fill="#8dd3c7" stroke="black" points="397.34,-149.8 394.34,-153.8 373.34,-153.8 370.34,-149.8 308.66,-149.8 308.66,-113.8 397.34,-113.8 397.34,-149.8"/>
<text text-anchor="middle" x="353" y="-127.6" font-family="Times,serif" font-size="14.00">ShopModule</text>
</g>
<!-- ProductDetailsComponent&#45;&gt;ShopModule -->
<g id="edge1" class="edge">
<title>ProductDetailsComponent&#45;&gt;ShopModule</title>
<path fill="none" stroke="black" d="M677,-85.08C677,-106.12 677,-137.8 677,-137.8 677,-137.8 407.37,-137.8 407.37,-137.8"/>
<polygon fill="black" stroke="black" points="407.37,-134.3 397.37,-137.8 407.37,-141.3 407.37,-134.3"/>
</g>
<!-- ProductItemComponent -->
<g id="node2" class="node">
<title>ProductItemComponent</title>
<polygon fill="#ffffb3" stroke="black" points="576.04,-84.8 425.96,-84.8 425.96,-48.8 576.04,-48.8 576.04,-84.8"/>
<text text-anchor="middle" x="501" y="-62.6" font-family="Times,serif" font-size="14.00">ProductItemComponent</text>
</g>
<!-- ProductItemComponent&#45;&gt;ShopModule -->
<g id="edge2" class="edge">
<title>ProductItemComponent&#45;&gt;ShopModule</title>
<path fill="none" stroke="black" d="M501,-84.82C501,-102.17 501,-125.8 501,-125.8 501,-125.8 407.4,-125.8 407.4,-125.8"/>
<polygon fill="black" stroke="black" points="407.4,-122.3 397.4,-125.8 407.4,-129.3 407.4,-122.3"/>
</g>
<!-- ShopComponent -->
<g id="node3" class="node">
<title>ShopComponent</title>
<polygon fill="#ffffb3" stroke="black" points="408.12,-84.8 297.88,-84.8 297.88,-48.8 408.12,-48.8 408.12,-84.8"/>
<text text-anchor="middle" x="353" y="-62.6" font-family="Times,serif" font-size="14.00">ShopComponent</text>
</g>
<!-- ShopComponent&#45;&gt;ShopModule -->
<g id="edge3" class="edge">
<title>ShopComponent&#45;&gt;ShopModule</title>
<path fill="none" stroke="black" d="M353,-84.91C353,-84.91 353,-103.79 353,-103.79"/>
<polygon fill="black" stroke="black" points="349.5,-103.79 353,-113.79 356.5,-103.79 349.5,-103.79"/>
</g>
<!-- SharedModule -->
<g id="node5" class="node">
<title>SharedModule</title>
<polygon fill="#8dd3c7" stroke="black" points="274.43,-84.8 271.43,-88.8 250.43,-88.8 247.43,-84.8 175.57,-84.8 175.57,-48.8 274.43,-48.8 274.43,-84.8"/>
<text text-anchor="middle" x="225" y="-62.6" font-family="Times,serif" font-size="14.00">SharedModule</text>
</g>
<!-- SharedModule&#45;&gt;ShopModule -->
<g id="edge4" class="edge">
<title>SharedModule&#45;&gt;ShopModule</title>
<path fill="none" stroke="black" d="M225,-84.82C225,-102.17 225,-125.8 225,-125.8 225,-125.8 298.59,-125.8 298.59,-125.8"/>
<polygon fill="black" stroke="black" points="298.59,-129.3 308.59,-125.8 298.59,-122.3 298.59,-129.3"/>
</g>
<!-- ShopRoutingModule -->
<g id="node6" class="node">
<title>ShopRoutingModule</title>
<polygon fill="#8dd3c7" stroke="black" points="157.96,-84.8 154.96,-88.8 133.96,-88.8 130.96,-84.8 24.04,-84.8 24.04,-48.8 157.96,-48.8 157.96,-84.8"/>
<text text-anchor="middle" x="91" y="-62.6" font-family="Times,serif" font-size="14.00">ShopRoutingModule</text>
</g>
<!-- ShopRoutingModule&#45;&gt;ShopModule -->
<g id="edge5" class="edge">
<title>ShopRoutingModule&#45;&gt;ShopModule</title>
<path fill="none" stroke="black" d="M91,-85.08C91,-106.12 91,-137.8 91,-137.8 91,-137.8 298.56,-137.8 298.56,-137.8"/>
<polygon fill="black" stroke="black" points="298.56,-141.3 308.56,-137.8 298.56,-134.3 298.56,-141.3"/>
</g>
</g>
</svg>
