<?xml version="1.0" encoding="UTF-8" standalone="no"?>
<!DOCTYPE svg PUBLIC "-//W3C//DTD SVG 1.1//EN"
 "http://www.w3.org/Graphics/SVG/1.1/DTD/svg11.dtd">
<!-- Generated by graphviz version 5.0.0 (20220707.1540)
 -->
<!-- Title: dependencies Pages: 1 -->
<svg width="1025pt" height="247pt"
 viewBox="0.00 0.00 1025.00 246.80" xmlns="http://www.w3.org/2000/svg" xmlns:xlink="http://www.w3.org/1999/xlink">
<g id="graph0" class="graph" transform="scale(1 1) rotate(0) translate(4 242.8)">
<title>dependencies</title>
<polygon fill="white" stroke="transparent" points="-4,4 -4,-242.8 1021,-242.8 1021,4 -4,4"/>
<text text-anchor="middle" x="508.5" y="-8.2" font-family="sans-serif" font-size="14.00">dependencies</text>
<g id="clust1" class="cluster">
<title>cluster_SharedModule</title>
<polygon fill="none" stroke="black" stroke-dasharray="1,5" points="8,-32.8 8,-230.8 1009,-230.8 1009,-32.8 8,-32.8"/>
</g>
<g id="clust10" class="cluster">
<title>cluster_SharedModule_exports</title>
<polygon fill="none" stroke="black" points="16,-170.8 16,-222.8 1001,-222.8 1001,-170.8 16,-170.8"/>
</g>
<g id="clust2" class="cluster">
<title>cluster_SharedModule_declarations</title>
<polygon fill="none" stroke="black" points="30,-40.8 30,-92.8 992,-92.8 992,-40.8 30,-40.8"/>
</g>
<!-- BasketSummaryComponent -->
<g id="node1" class="node">
<title>BasketSummaryComponent</title>
<polygon fill="#ffffb3" stroke="black" points="983.88,-84.8 810.12,-84.8 810.12,-48.8 983.88,-48.8 983.88,-84.8"/>
<text text-anchor="middle" x="897" y="-62.6" font-family="Times,serif" font-size="14.00">BasketSummaryComponent</text>
</g>
<!-- SharedModule -->
<g id="node7" class="node">
<title>SharedModule</title>
<polygon fill="#8dd3c7" stroke="black" points="468.43,-149.8 465.43,-153.8 444.43,-153.8 441.43,-149.8 369.57,-149.8 369.57,-113.8 468.43,-113.8 468.43,-149.8"/>
<text text-anchor="middle" x="419" y="-127.6" font-family="Times,serif" font-size="14.00">SharedModule</text>
</g>
<!-- BasketSummaryComponent&#45;&gt;SharedModule -->
<g id="edge1" class="edge">
<title>BasketSummaryComponent&#45;&gt;SharedModule</title>
<path fill="none" stroke="black" d="M927.73,-85.02C927.73,-103.63 927.73,-129.8 927.73,-129.8 927.73,-129.8 478.24,-129.8 478.24,-129.8"/>
<polygon fill="black" stroke="black" points="478.24,-126.3 468.24,-129.8 478.24,-133.3 478.24,-126.3"/>
</g>
<!-- OrderTotalsComponent -->
<g id="node2" class="node">
<title>OrderTotalsComponent</title>
<polygon fill="#ffffb3" stroke="black" points="792.47,-84.8 643.53,-84.8 643.53,-48.8 792.47,-48.8 792.47,-84.8"/>
<text text-anchor="middle" x="718" y="-62.6" font-family="Times,serif" font-size="14.00">OrderTotalsComponent</text>
</g>
<!-- OrderTotalsComponent&#45;&gt;SharedModule -->
<g id="edge2" class="edge">
<title>OrderTotalsComponent&#45;&gt;SharedModule</title>
<path fill="none" stroke="black" d="M743.25,-84.83C743.25,-101.86 743.25,-124.8 743.25,-124.8 743.25,-124.8 478.25,-124.8 478.25,-124.8"/>
<polygon fill="black" stroke="black" points="478.25,-121.3 468.25,-124.8 478.25,-128.3 478.25,-121.3"/>
</g>
<!-- PagerComponent -->
<g id="node3" class="node">
<title>PagerComponent</title>
<polygon fill="#ffffb3" stroke="black" points="625.71,-84.8 512.29,-84.8 512.29,-48.8 625.71,-48.8 625.71,-84.8"/>
<text text-anchor="middle" x="569" y="-62.6" font-family="Times,serif" font-size="14.00">PagerComponent</text>
</g>
<!-- PagerComponent&#45;&gt;SharedModule -->
<g id="edge3" class="edge">
<title>PagerComponent&#45;&gt;SharedModule</title>
<path fill="none" stroke="black" d="M550.13,-85.04C550.13,-100.37 550.13,-119.8 550.13,-119.8 550.13,-119.8 478.58,-119.8 478.58,-119.8"/>
<polygon fill="black" stroke="black" points="478.58,-116.3 468.58,-119.8 478.58,-123.3 478.58,-116.3"/>
</g>
<!-- PagingHeaderComponent -->
<g id="node4" class="node">
<title>PagingHeaderComponent</title>
<polygon fill="#ffffb3" stroke="black" points="494.14,-84.8 333.86,-84.8 333.86,-48.8 494.14,-48.8 494.14,-84.8"/>
<text text-anchor="middle" x="414" y="-62.6" font-family="Times,serif" font-size="14.00">PagingHeaderComponent</text>
</g>
<!-- PagingHeaderComponent&#45;&gt;SharedModule -->
<g id="edge4" class="edge">
<title>PagingHeaderComponent&#45;&gt;SharedModule</title>
<path fill="none" stroke="black" d="M419,-84.91C419,-84.91 419,-103.79 419,-103.79"/>
<polygon fill="black" stroke="black" points="415.5,-103.79 419,-113.79 422.5,-103.79 415.5,-103.79"/>
</g>
<!-- StepperComponent -->
<g id="node5" class="node">
<title>StepperComponent</title>
<polygon fill="#ffffb3" stroke="black" points="316.1,-84.8 191.9,-84.8 191.9,-48.8 316.1,-48.8 316.1,-84.8"/>
<text text-anchor="middle" x="254" y="-62.6" font-family="Times,serif" font-size="14.00">StepperComponent</text>
</g>
<!-- StepperComponent&#45;&gt;SharedModule -->
<g id="edge5" class="edge">
<title>StepperComponent&#45;&gt;SharedModule</title>
<path fill="none" stroke="black" d="M270.52,-84.81C270.52,-100.85 270.52,-121.8 270.52,-121.8 270.52,-121.8 359.56,-121.8 359.56,-121.8"/>
<polygon fill="black" stroke="black" points="359.56,-125.3 369.56,-121.8 359.56,-118.3 359.56,-125.3"/>
</g>
<!-- TextInputComponent -->
<g id="node6" class="node">
<title>TextInputComponent</title>
<polygon fill="#ffffb3" stroke="black" points="174.04,-84.8 37.96,-84.8 37.96,-48.8 174.04,-48.8 174.04,-84.8"/>
<text text-anchor="middle" x="106" y="-62.6" font-family="Times,serif" font-size="14.00">TextInputComponent</text>
</g>
<!-- TextInputComponent&#45;&gt;SharedModule -->
<g id="edge6" class="edge">
<title>TextInputComponent&#45;&gt;SharedModule</title>
<path fill="none" stroke="black" d="M169.14,-85.07C169.14,-103.36 169.14,-128.8 169.14,-128.8 169.14,-128.8 359.64,-128.8 359.64,-128.8"/>
<polygon fill="black" stroke="black" points="359.64,-132.3 369.64,-128.8 359.64,-125.3 359.64,-132.3"/>
</g>
<!-- BasketSummaryComponent  -->
<g id="node8" class="node">
<title>BasketSummaryComponent </title>
<polygon fill="#fb8072" stroke="black" points="992.88,-214.8 815.12,-214.8 815.12,-178.8 992.88,-178.8 992.88,-214.8"/>
<text text-anchor="middle" x="904" y="-192.6" font-family="Times,serif" font-size="14.00">BasketSummaryComponent </text>
</g>
<!-- SharedModule&#45;&gt;BasketSummaryComponent  -->
<g id="edge7" class="edge">
<title>SharedModule&#45;&gt;BasketSummaryComponent </title>
<path fill="none" stroke="black" stroke-dasharray="5,2" d="M468.29,-134.8C585.57,-134.8 871.52,-134.8 871.52,-134.8 871.52,-134.8 871.52,-168.53 871.52,-168.53"/>
<polygon fill="black" stroke="black" points="868.02,-168.53 871.52,-178.53 875.02,-168.53 868.02,-168.53"/>
</g>
<!-- OrderTotalsComponent  -->
<g id="node9" class="node">
<title>OrderTotalsComponent </title>
<polygon fill="#fb8072" stroke="black" points="797.47,-214.8 644.53,-214.8 644.53,-178.8 797.47,-178.8 797.47,-214.8"/>
<text text-anchor="middle" x="721" y="-192.6" font-family="Times,serif" font-size="14.00">OrderTotalsComponent </text>
</g>
<!-- SharedModule&#45;&gt;OrderTotalsComponent  -->
<g id="edge8" class="edge">
<title>SharedModule&#45;&gt;OrderTotalsComponent </title>
<path fill="none" stroke="black" stroke-dasharray="5,2" d="M468.48,-139.8C547.66,-139.8 694,-139.8 694,-139.8 694,-139.8 694,-168.76 694,-168.76"/>
<polygon fill="black" stroke="black" points="690.5,-168.76 694,-178.76 697.5,-168.76 690.5,-168.76"/>
</g>
<!-- PagerComponent  -->
<g id="node10" class="node">
<title>PagerComponent </title>
<polygon fill="#fb8072" stroke="black" points="626.21,-214.8 509.79,-214.8 509.79,-178.8 626.21,-178.8 626.21,-214.8"/>
<text text-anchor="middle" x="568" y="-192.6" font-family="Times,serif" font-size="14.00">PagerComponent </text>
</g>
<!-- SharedModule&#45;&gt;PagerComponent  -->
<g id="edge9" class="edge">
<title>SharedModule&#45;&gt;PagerComponent </title>
<path fill="none" stroke="black" stroke-dasharray="5,2" d="M468.3,-144.8C518.14,-144.8 587.87,-144.8 587.87,-144.8 587.87,-144.8 587.87,-168.61 587.87,-168.61"/>
<polygon fill="black" stroke="black" points="584.37,-168.61 587.87,-178.61 591.37,-168.61 584.37,-168.61"/>
</g>
<!-- PagingHeaderComponent  -->
<g id="node11" class="node">
<title>PagingHeaderComponent </title>
<polygon fill="#fb8072" stroke="black" points="492.13,-214.8 327.87,-214.8 327.87,-178.8 492.13,-178.8 492.13,-214.8"/>
<text text-anchor="middle" x="410" y="-192.6" font-family="Times,serif" font-size="14.00">PagingHeaderComponent </text>
</g>
<!-- SharedModule&#45;&gt;PagingHeaderComponent  -->
<g id="edge10" class="edge">
<title>SharedModule&#45;&gt;PagingHeaderComponent </title>
<path fill="none" stroke="black" stroke-dasharray="5,2" d="M419,-149.91C419,-149.91 419,-168.79 419,-168.79"/>
<polygon fill="black" stroke="black" points="415.5,-168.79 419,-178.79 422.5,-168.79 415.5,-168.79"/>
</g>
<!-- StepperComponent  -->
<g id="node12" class="node">
<title>StepperComponent </title>
<polygon fill="#fb8072" stroke="black" points="309.6,-214.8 182.4,-214.8 182.4,-178.8 309.6,-178.8 309.6,-214.8"/>
<text text-anchor="middle" x="246" y="-192.6" font-family="Times,serif" font-size="14.00">StepperComponent </text>
</g>
<!-- SharedModule&#45;&gt;StepperComponent  -->
<g id="edge11" class="edge">
<title>SharedModule&#45;&gt;StepperComponent </title>
<path fill="none" stroke="black" stroke-dasharray="5,2" d="M369.67,-142.8C314.03,-142.8 231.23,-142.8 231.23,-142.8 231.23,-142.8 231.23,-168.52 231.23,-168.52"/>
<polygon fill="black" stroke="black" points="227.73,-168.52 231.23,-178.52 234.73,-168.52 227.73,-168.52"/>
</g>
<!-- TextInputComponent  -->
<g id="node13" class="node">
<title>TextInputComponent </title>
<polygon fill="#fb8072" stroke="black" points="164.04,-214.8 23.96,-214.8 23.96,-178.8 164.04,-178.8 164.04,-214.8"/>
<text text-anchor="middle" x="94" y="-192.6" font-family="Times,serif" font-size="14.00">TextInputComponent </text>
</g>
<!-- SharedModule&#45;&gt;TextInputComponent  -->
<g id="edge12" class="edge">
<title>SharedModule&#45;&gt;TextInputComponent </title>
<path fill="none" stroke="black" stroke-dasharray="5,2" d="M369.64,-135.8C280.29,-135.8 100.88,-135.8 100.88,-135.8 100.88,-135.8 100.88,-168.5 100.88,-168.5"/>
<polygon fill="black" stroke="black" points="97.38,-168.5 100.88,-178.5 104.38,-168.5 97.38,-168.5"/>
</g>
</g>
</svg>
