<?xml version="1.0" encoding="UTF-8" standalone="no"?>
<!DOCTYPE svg PUBLIC "-//W3C//DTD SVG 1.1//EN"
 "http://www.w3.org/Graphics/SVG/1.1/DTD/svg11.dtd">
<!-- Generated by graphviz version 5.0.0 (20220707.1540)
 -->
<!-- Title: dependencies Pages: 1 -->
<svg width="1044pt" height="247pt"
 viewBox="0.00 0.00 1044.00 246.80" xmlns="http://www.w3.org/2000/svg" xmlns:xlink="http://www.w3.org/1999/xlink">
<g id="graph0" class="graph" transform="scale(1 1) rotate(0) translate(4 242.8)">
<title>dependencies</title>
<polygon fill="white" stroke="transparent" points="-4,4 -4,-242.8 1040,-242.8 1040,4 -4,4"/>
<text text-anchor="middle" x="518" y="-8.2" font-family="sans-serif" font-size="14.00">dependencies</text>
<g id="clust1" class="cluster">
<title>cluster_AppModule</title>
<polygon fill="none" stroke="black" stroke-dasharray="1,5" points="8,-32.8 8,-230.8 1028,-230.8 1028,-32.8 8,-32.8"/>
</g>
<g id="clust6" class="cluster">
<title>cluster_AppModule_bootstrap</title>
<polygon fill="none" stroke="black" points="384,-170.8 384,-222.8 508,-222.8 508,-170.8 384,-170.8"/>
</g>
<g id="clust7" class="cluster">
<title>cluster_AppModule_providers</title>
<polygon fill="none" stroke="black" points="515,-40.8 515,-92.8 1020,-92.8 1020,-40.8 515,-40.8"/>
</g>
<g id="clust2" class="cluster">
<title>cluster_AppModule_declarations</title>
<polygon fill="none" stroke="black" points="385,-40.8 385,-92.8 507,-92.8 507,-40.8 385,-40.8"/>
</g>
<g id="clust4" class="cluster">
<title>cluster_AppModule_imports</title>
<polygon fill="none" stroke="black" points="16,-40.8 16,-92.8 377,-92.8 377,-40.8 16,-40.8"/>
</g>
<!-- AppComponent -->
<g id="node1" class="node">
<title>AppComponent</title>
<polygon fill="#ffffb3" stroke="black" points="498.94,-84.8 393.06,-84.8 393.06,-48.8 498.94,-48.8 498.94,-84.8"/>
<text text-anchor="middle" x="446" y="-62.6" font-family="Times,serif" font-size="14.00">AppComponent</text>
</g>
<!-- AppModule -->
<g id="node2" class="node">
<title>AppModule</title>
<polygon fill="#8dd3c7" stroke="black" points="487.66,-149.8 484.66,-153.8 463.66,-153.8 460.66,-149.8 404.34,-149.8 404.34,-113.8 487.66,-113.8 487.66,-149.8"/>
<text text-anchor="middle" x="446" y="-127.6" font-family="Times,serif" font-size="14.00">AppModule</text>
</g>
<!-- AppComponent&#45;&gt;AppModule -->
<g id="edge1" class="edge">
<title>AppComponent&#45;&gt;AppModule</title>
<path fill="none" stroke="black" d="M446,-84.91C446,-84.91 446,-103.79 446,-103.79"/>
<polygon fill="black" stroke="black" points="442.5,-103.79 446,-113.79 449.5,-103.79 442.5,-103.79"/>
</g>
<!-- AppComponent  -->
<g id="node6" class="node">
<title>AppComponent </title>
<polygon fill="#80b1d3" stroke="black" points="500.44,-214.8 391.56,-214.8 391.56,-178.8 500.44,-178.8 500.44,-214.8"/>
<text text-anchor="middle" x="446" y="-192.6" font-family="Times,serif" font-size="14.00">AppComponent </text>
</g>
<!-- AppModule&#45;&gt;AppComponent  -->
<g id="edge5" class="edge">
<title>AppModule&#45;&gt;AppComponent </title>
<path fill="none" stroke="black" stroke-dasharray="1,5" d="M446,-149.91C446,-149.91 446,-168.79 446,-168.79"/>
<polygon fill="black" stroke="black" points="442.5,-168.79 446,-178.79 449.5,-168.79 442.5,-168.79"/>
</g>
<!-- AppRoutingModule -->
<g id="node3" class="node">
<title>AppRoutingModule</title>
<polygon fill="#8dd3c7" stroke="black" points="369.28,-84.8 366.28,-88.8 345.28,-88.8 342.28,-84.8 240.72,-84.8 240.72,-48.8 369.28,-48.8 369.28,-84.8"/>
<text text-anchor="middle" x="305" y="-62.6" font-family="Times,serif" font-size="14.00">AppRoutingModule</text>
</g>
<!-- AppRoutingModule&#45;&gt;AppModule -->
<g id="edge2" class="edge">
<title>AppRoutingModule&#45;&gt;AppModule</title>
<path fill="none" stroke="black" d="M305,-84.83C305,-101.2 305,-122.8 305,-122.8 305,-122.8 394.08,-122.8 394.08,-122.8"/>
<polygon fill="black" stroke="black" points="394.08,-126.3 404.08,-122.8 394.08,-119.3 394.08,-126.3"/>
</g>
<!-- CoreModule -->
<g id="node4" class="node">
<title>CoreModule</title>
<polygon fill="#8dd3c7" stroke="black" points="222.27,-84.8 219.27,-88.8 198.27,-88.8 195.27,-84.8 135.73,-84.8 135.73,-48.8 222.27,-48.8 222.27,-84.8"/>
<text text-anchor="middle" x="179" y="-62.6" font-family="Times,serif" font-size="14.00">CoreModule</text>
</g>
<!-- CoreModule&#45;&gt;AppModule -->
<g id="edge3" class="edge">
<title>CoreModule&#45;&gt;AppModule</title>
<path fill="none" stroke="black" d="M179,-84.91C179,-104.14 179,-131.8 179,-131.8 179,-131.8 394.28,-131.8 394.28,-131.8"/>
<polygon fill="black" stroke="black" points="394.28,-135.3 404.28,-131.8 394.28,-128.3 394.28,-135.3"/>
</g>
<!-- HomeModule -->
<g id="node5" class="node">
<title>HomeModule</title>
<polygon fill="#8dd3c7" stroke="black" points="117.77,-84.8 114.77,-88.8 93.77,-88.8 90.77,-84.8 24.23,-84.8 24.23,-48.8 117.77,-48.8 117.77,-84.8"/>
<text text-anchor="middle" x="71" y="-62.6" font-family="Times,serif" font-size="14.00">HomeModule</text>
</g>
<!-- HomeModule&#45;&gt;AppModule -->
<g id="edge4" class="edge">
<title>HomeModule&#45;&gt;AppModule</title>
<path fill="none" stroke="black" d="M71,-85.09C71,-107.01 71,-140.8 71,-140.8 71,-140.8 394.07,-140.8 394.07,-140.8"/>
<polygon fill="black" stroke="black" points="394.07,-144.3 404.07,-140.8 394.07,-137.3 394.07,-144.3"/>
</g>
<!-- ErrorInterceptor -->
<g id="node7" class="node">
<title>ErrorInterceptor</title>
<ellipse fill="#fdb462" stroke="black" cx="938" cy="-66.8" rx="73.54" ry="18"/>
<text text-anchor="middle" x="938" y="-62.6" font-family="Times,serif" font-size="14.00">ErrorInterceptor</text>
</g>
<!-- ErrorInterceptor&#45;&gt;AppModule -->
<g id="edge6" class="edge">
<title>ErrorInterceptor&#45;&gt;AppModule</title>
<path fill="none" stroke="black" d="M938,-85.09C938,-107.01 938,-140.8 938,-140.8 938,-140.8 497.95,-140.8 497.95,-140.8"/>
<polygon fill="black" stroke="black" points="497.95,-137.3 487.95,-140.8 497.95,-144.3 497.95,-137.3"/>
</g>
<!-- JwtInterceptor -->
<g id="node8" class="node">
<title>JwtInterceptor</title>
<ellipse fill="#fdb462" stroke="black" cx="779" cy="-66.8" rx="66.62" ry="18"/>
<text text-anchor="middle" x="779" y="-62.6" font-family="Times,serif" font-size="14.00">JwtInterceptor</text>
</g>
<!-- JwtInterceptor&#45;&gt;AppModule -->
<g id="edge7" class="edge">
<title>JwtInterceptor&#45;&gt;AppModule</title>
<path fill="none" stroke="black" d="M779,-84.91C779,-104.14 779,-131.8 779,-131.8 779,-131.8 497.84,-131.8 497.84,-131.8"/>
<polygon fill="black" stroke="black" points="497.84,-128.3 487.84,-131.8 497.84,-135.3 497.84,-128.3"/>
</g>
<!-- LoadingInterceptor -->
<g id="node9" class="node">
<title>LoadingInterceptor</title>
<ellipse fill="#fdb462" stroke="black" cx="609" cy="-66.8" rx="85.65" ry="18"/>
<text text-anchor="middle" x="609" y="-62.6" font-family="Times,serif" font-size="14.00">LoadingInterceptor</text>
</g>
<!-- LoadingInterceptor&#45;&gt;AppModule -->
<g id="edge8" class="edge">
<title>LoadingInterceptor&#45;&gt;AppModule</title>
<path fill="none" stroke="black" d="M609,-84.83C609,-101.2 609,-122.8 609,-122.8 609,-122.8 497.98,-122.8 497.98,-122.8"/>
<polygon fill="black" stroke="black" points="497.98,-119.3 487.98,-122.8 497.98,-126.3 497.98,-119.3"/>
</g>
</g>
</svg>
