<?xml version="1.0" encoding="UTF-8" standalone="no"?>
<!DOCTYPE svg PUBLIC "-//W3C//DTD SVG 1.1//EN"
 "http://www.w3.org/Graphics/SVG/1.1/DTD/svg11.dtd">
<!-- Generated by graphviz version 5.0.0 (20220707.1540)
 -->
<!-- Title: dependencies Pages: 1 -->
<svg width="1485pt" height="174pt"
 viewBox="0.00 0.00 1485.00 173.80" xmlns="http://www.w3.org/2000/svg" xmlns:xlink="http://www.w3.org/1999/xlink">
<g id="graph0" class="graph" transform="scale(1 1) rotate(0) translate(4 169.8)">
<title>dependencies</title>
<polygon fill="white" stroke="transparent" points="-4,4 -4,-169.8 1481,-169.8 1481,4 -4,4"/>
<text text-anchor="middle" x="738.5" y="-8.2" font-family="sans-serif" font-size="14.00">dependencies</text>
<g id="clust1" class="cluster">
<title>cluster_CheckoutModule</title>
<polygon fill="none" stroke="black" stroke-dasharray="1,5" points="8,-32.8 8,-157.8 1469,-157.8 1469,-32.8 8,-32.8"/>
</g>
<g id="clust9" class="cluster">
<title>cluster_CheckoutModule_imports</title>
<polygon fill="none" stroke="black" points="1171,-40.8 1171,-92.8 1461,-92.8 1461,-40.8 1171,-40.8"/>
</g>
<g id="clust2" class="cluster">
<title>cluster_CheckoutModule_declarations</title>
<polygon fill="none" stroke="black" points="16,-40.8 16,-92.8 1163,-92.8 1163,-40.8 16,-40.8"/>
</g>
<!-- CheckoutAddressComponent -->
<g id="node1" class="node">
<title>CheckoutAddressComponent</title>
<polygon fill="#ffffb3" stroke="black" points="1155.37,-84.8 974.63,-84.8 974.63,-48.8 1155.37,-48.8 1155.37,-84.8"/>
<text text-anchor="middle" x="1065" y="-62.6" font-family="Times,serif" font-size="14.00">CheckoutAddressComponent</text>
</g>
<!-- CheckoutModule -->
<g id="node7" class="node">
<title>CheckoutModule</title>
<polygon fill="#8dd3c7" stroke="black" points="856.71,-149.8 853.71,-153.8 832.71,-153.8 829.71,-149.8 743.29,-149.8 743.29,-113.8 856.71,-113.8 856.71,-149.8"/>
<text text-anchor="middle" x="800" y="-127.6" font-family="Times,serif" font-size="14.00">CheckoutModule</text>
</g>
<!-- CheckoutAddressComponent&#45;&gt;CheckoutModule -->
<g id="edge1" class="edge">
<title>CheckoutAddressComponent&#45;&gt;CheckoutModule</title>
<path fill="none" stroke="black" d="M1065,-84.83C1065,-101.2 1065,-122.8 1065,-122.8 1065,-122.8 866.85,-122.8 866.85,-122.8"/>
<polygon fill="black" stroke="black" points="866.85,-119.3 856.85,-122.8 866.85,-126.3 866.85,-119.3"/>
</g>
<!-- CheckoutComponent -->
<g id="node2" class="node">
<title>CheckoutComponent</title>
<polygon fill="#ffffb3" stroke="black" points="956.49,-84.8 821.51,-84.8 821.51,-48.8 956.49,-48.8 956.49,-84.8"/>
<text text-anchor="middle" x="889" y="-62.6" font-family="Times,serif" font-size="14.00">CheckoutComponent</text>
</g>
<!-- CheckoutComponent&#45;&gt;CheckoutModule -->
<g id="edge2" class="edge">
<title>CheckoutComponent&#45;&gt;CheckoutModule</title>
<path fill="none" stroke="black" d="M839.06,-84.91C839.06,-84.91 839.06,-103.79 839.06,-103.79"/>
<polygon fill="black" stroke="black" points="835.56,-103.79 839.06,-113.79 842.56,-103.79 835.56,-103.79"/>
</g>
<!-- CheckoutDeliveryComponent -->
<g id="node3" class="node">
<title>CheckoutDeliveryComponent</title>
<polygon fill="#ffffb3" stroke="black" points="803.97,-84.8 620.03,-84.8 620.03,-48.8 803.97,-48.8 803.97,-84.8"/>
<text text-anchor="middle" x="712" y="-62.6" font-family="Times,serif" font-size="14.00">CheckoutDeliveryComponent</text>
</g>
<!-- CheckoutDeliveryComponent&#45;&gt;CheckoutModule -->
<g id="edge3" class="edge">
<title>CheckoutDeliveryComponent&#45;&gt;CheckoutModule</title>
<path fill="none" stroke="black" d="M773.69,-84.91C773.69,-84.91 773.69,-103.79 773.69,-103.79"/>
<polygon fill="black" stroke="black" points="770.19,-103.79 773.69,-113.79 777.19,-103.79 770.19,-103.79"/>
</g>
<!-- CheckoutPaymentComponent -->
<g id="node4" class="node">
<title>CheckoutPaymentComponent</title>
<polygon fill="#ffffb3" stroke="black" points="601.98,-84.8 418.02,-84.8 418.02,-48.8 601.98,-48.8 601.98,-84.8"/>
<text text-anchor="middle" x="510" y="-62.6" font-family="Times,serif" font-size="14.00">CheckoutPaymentComponent</text>
</g>
<!-- CheckoutPaymentComponent&#45;&gt;CheckoutModule -->
<g id="edge4" class="edge">
<title>CheckoutPaymentComponent&#45;&gt;CheckoutModule</title>
<path fill="none" stroke="black" d="M510,-84.83C510,-101.2 510,-122.8 510,-122.8 510,-122.8 733.05,-122.8 733.05,-122.8"/>
<polygon fill="black" stroke="black" points="733.05,-126.3 743.05,-122.8 733.05,-119.3 733.05,-126.3"/>
</g>
<!-- CheckoutReviewComponent -->
<g id="node5" class="node">
<title>CheckoutReviewComponent</title>
<polygon fill="#ffffb3" stroke="black" points="399.75,-84.8 222.25,-84.8 222.25,-48.8 399.75,-48.8 399.75,-84.8"/>
<text text-anchor="middle" x="311" y="-62.6" font-family="Times,serif" font-size="14.00">CheckoutReviewComponent</text>
</g>
<!-- CheckoutReviewComponent&#45;&gt;CheckoutModule -->
<g id="edge5" class="edge">
<title>CheckoutReviewComponent&#45;&gt;CheckoutModule</title>
<path fill="none" stroke="black" d="M311,-84.91C311,-104.14 311,-131.8 311,-131.8 311,-131.8 732.95,-131.8 732.95,-131.8"/>
<polygon fill="black" stroke="black" points="732.95,-135.3 742.95,-131.8 732.95,-128.3 732.95,-135.3"/>
</g>
<!-- CheckoutSuccessComponent -->
<g id="node6" class="node">
<title>CheckoutSuccessComponent</title>
<polygon fill="#ffffb3" stroke="black" points="203.81,-84.8 24.19,-84.8 24.19,-48.8 203.81,-48.8 203.81,-84.8"/>
<text text-anchor="middle" x="114" y="-62.6" font-family="Times,serif" font-size="14.00">CheckoutSuccessComponent</text>
</g>
<!-- CheckoutSuccessComponent&#45;&gt;CheckoutModule -->
<g id="edge6" class="edge">
<title>CheckoutSuccessComponent&#45;&gt;CheckoutModule</title>
<path fill="none" stroke="black" d="M114,-85.09C114,-107.01 114,-140.8 114,-140.8 114,-140.8 733.28,-140.8 733.28,-140.8"/>
<polygon fill="black" stroke="black" points="733.28,-144.3 743.28,-140.8 733.28,-137.3 733.28,-144.3"/>
</g>
<!-- CheckoutRoutingModule -->
<g id="node8" class="node">
<title>CheckoutRoutingModule</title>
<polygon fill="#8dd3c7" stroke="black" points="1453.32,-84.8 1450.32,-88.8 1429.32,-88.8 1426.32,-84.8 1294.68,-84.8 1294.68,-48.8 1453.32,-48.8 1453.32,-84.8"/>
<text text-anchor="middle" x="1374" y="-62.6" font-family="Times,serif" font-size="14.00">CheckoutRoutingModule</text>
</g>
<!-- CheckoutRoutingModule&#45;&gt;CheckoutModule -->
<g id="edge7" class="edge">
<title>CheckoutRoutingModule&#45;&gt;CheckoutModule</title>
<path fill="none" stroke="black" d="M1374,-85.09C1374,-107.01 1374,-140.8 1374,-140.8 1374,-140.8 866.61,-140.8 866.61,-140.8"/>
<polygon fill="black" stroke="black" points="866.61,-137.3 856.61,-140.8 866.61,-144.3 866.61,-137.3"/>
</g>
<!-- SharedModule -->
<g id="node9" class="node">
<title>SharedModule</title>
<polygon fill="#8dd3c7" stroke="black" points="1277.43,-84.8 1274.43,-88.8 1253.43,-88.8 1250.43,-84.8 1178.57,-84.8 1178.57,-48.8 1277.43,-48.8 1277.43,-84.8"/>
<text text-anchor="middle" x="1228" y="-62.6" font-family="Times,serif" font-size="14.00">SharedModule</text>
</g>
<!-- SharedModule&#45;&gt;CheckoutModule -->
<g id="edge8" class="edge">
<title>SharedModule&#45;&gt;CheckoutModule</title>
<path fill="none" stroke="black" d="M1228,-84.91C1228,-104.14 1228,-131.8 1228,-131.8 1228,-131.8 866.84,-131.8 866.84,-131.8"/>
<polygon fill="black" stroke="black" points="866.84,-128.3 856.84,-131.8 866.84,-135.3 866.84,-128.3"/>
</g>
</g>
</svg>
