<?xml version="1.0" encoding="UTF-8" standalone="no"?>
<!DOCTYPE svg PUBLIC "-//W3C//DTD SVG 1.1//EN"
 "http://www.w3.org/Graphics/SVG/1.1/DTD/svg11.dtd">
<!-- Generated by graphviz version 5.0.0 (20220707.1540)
 -->
<!-- Title: dependencies Pages: 1 -->
<svg width="631pt" height="174pt"
 viewBox="0.00 0.00 631.00 173.80" xmlns="http://www.w3.org/2000/svg" xmlns:xlink="http://www.w3.org/1999/xlink">
<g id="graph0" class="graph" transform="scale(1 1) rotate(0) translate(4 169.8)">
<title>dependencies</title>
<polygon fill="white" stroke="transparent" points="-4,4 -4,-169.8 627,-169.8 627,4 -4,4"/>
<text text-anchor="middle" x="311.5" y="-8.2" font-family="sans-serif" font-size="14.00">dependencies</text>
<g id="clust1" class="cluster">
<title>cluster_OrdersModule</title>
<polygon fill="none" stroke="black" stroke-dasharray="1,5" points="8,-32.8 8,-157.8 615,-157.8 615,-32.8 8,-32.8"/>
</g>
<g id="clust5" class="cluster">
<title>cluster_OrdersModule_imports</title>
<polygon fill="none" stroke="black" points="332,-40.8 332,-92.8 607,-92.8 607,-40.8 332,-40.8"/>
</g>
<g id="clust2" class="cluster">
<title>cluster_OrdersModule_declarations</title>
<polygon fill="none" stroke="black" points="16,-40.8 16,-92.8 324,-92.8 324,-40.8 16,-40.8"/>
</g>
<!-- OrderDetailsComponent -->
<g id="node1" class="node">
<title>OrderDetailsComponent</title>
<polygon fill="#ffffb3" stroke="black" points="315.64,-84.8 162.36,-84.8 162.36,-48.8 315.64,-48.8 315.64,-84.8"/>
<text text-anchor="middle" x="239" y="-62.6" font-family="Times,serif" font-size="14.00">OrderDetailsComponent</text>
</g>
<!-- OrdersModule -->
<g id="node3" class="node">
<title>OrdersModule</title>
<polygon fill="#8dd3c7" stroke="black" points="362.65,-149.8 359.65,-153.8 338.65,-153.8 335.65,-149.8 265.35,-149.8 265.35,-113.8 362.65,-113.8 362.65,-149.8"/>
<text text-anchor="middle" x="314" y="-127.6" font-family="Times,serif" font-size="14.00">OrdersModule</text>
</g>
<!-- OrderDetailsComponent&#45;&gt;OrdersModule -->
<g id="edge1" class="edge">
<title>OrderDetailsComponent&#45;&gt;OrdersModule</title>
<path fill="none" stroke="black" d="M290.5,-84.91C290.5,-84.91 290.5,-103.79 290.5,-103.79"/>
<polygon fill="black" stroke="black" points="287,-103.79 290.5,-113.79 294,-103.79 287,-103.79"/>
</g>
<!-- OrdersComponent -->
<g id="node2" class="node">
<title>OrdersComponent</title>
<polygon fill="#ffffb3" stroke="black" points="143.93,-84.8 24.07,-84.8 24.07,-48.8 143.93,-48.8 143.93,-84.8"/>
<text text-anchor="middle" x="84" y="-62.6" font-family="Times,serif" font-size="14.00">OrdersComponent</text>
</g>
<!-- OrdersComponent&#45;&gt;OrdersModule -->
<g id="edge2" class="edge">
<title>OrdersComponent&#45;&gt;OrdersModule</title>
<path fill="none" stroke="black" d="M84,-84.91C84,-104.14 84,-131.8 84,-131.8 84,-131.8 255.22,-131.8 255.22,-131.8"/>
<polygon fill="black" stroke="black" points="255.22,-135.3 265.22,-131.8 255.22,-128.3 255.22,-135.3"/>
</g>
<!-- OrdersRoutingModule -->
<g id="node4" class="node">
<title>OrdersRoutingModule</title>
<polygon fill="#8dd3c7" stroke="black" points="599.27,-84.8 596.27,-88.8 575.27,-88.8 572.27,-84.8 456.73,-84.8 456.73,-48.8 599.27,-48.8 599.27,-84.8"/>
<text text-anchor="middle" x="528" y="-62.6" font-family="Times,serif" font-size="14.00">OrdersRoutingModule</text>
</g>
<!-- OrdersRoutingModule&#45;&gt;OrdersModule -->
<g id="edge3" class="edge">
<title>OrdersRoutingModule&#45;&gt;OrdersModule</title>
<path fill="none" stroke="black" d="M528,-84.91C528,-104.14 528,-131.8 528,-131.8 528,-131.8 372.83,-131.8 372.83,-131.8"/>
<polygon fill="black" stroke="black" points="372.83,-128.3 362.83,-131.8 372.83,-135.3 372.83,-128.3"/>
</g>
<!-- SharedModule -->
<g id="node5" class="node">
<title>SharedModule</title>
<polygon fill="#8dd3c7" stroke="black" points="438.43,-84.8 435.43,-88.8 414.43,-88.8 411.43,-84.8 339.57,-84.8 339.57,-48.8 438.43,-48.8 438.43,-84.8"/>
<text text-anchor="middle" x="389" y="-62.6" font-family="Times,serif" font-size="14.00">SharedModule</text>
</g>
<!-- SharedModule&#45;&gt;OrdersModule -->
<g id="edge4" class="edge">
<title>SharedModule&#45;&gt;OrdersModule</title>
<path fill="none" stroke="black" d="M351.31,-84.91C351.31,-84.91 351.31,-103.79 351.31,-103.79"/>
<polygon fill="black" stroke="black" points="347.81,-103.79 351.31,-113.79 354.81,-103.79 347.81,-103.79"/>
</g>
</g>
</svg>
