<?xml version="1.0" encoding="UTF-8" standalone="no"?>
<!DOCTYPE svg PUBLIC "-//W3C//DTD SVG 1.1//EN"
 "http://www.w3.org/Graphics/SVG/1.1/DTD/svg11.dtd">
<!-- Generated by graphviz version 5.0.0 (20220707.1540)
 -->
<!-- Title: dependencies Pages: 1 -->
<svg width="6598pt" height="337pt"
 viewBox="0.00 0.00 6598.00 336.80" xmlns="http://www.w3.org/2000/svg" xmlns:xlink="http://www.w3.org/1999/xlink">
<g id="graph0" class="graph" transform="scale(1 1) rotate(0) translate(4 332.8)">
<title>dependencies</title>
<polygon fill="white" stroke="transparent" points="-4,4 -4,-332.8 6594,-332.8 6594,4 -4,4"/>
<text text-anchor="middle" x="3295" y="-8.2" font-family="sans-serif" font-size="14.00">dependencies</text>
<g id="clust1" class="cluster">
<title>cluster_AccountModule</title>
<polygon fill="none" stroke="black" stroke-dasharray="1,5" points="1987,-32.8 1987,-168.8 2718,-168.8 2718,-32.8 1987,-32.8"/>
</g>
<g id="clust2" class="cluster">
<title>cluster_AccountModule_declarations</title>
<polygon fill="none" stroke="black" points="2287,-40.8 2287,-92.8 2710,-92.8 2710,-40.8 2287,-40.8"/>
</g>
<g id="clust6" class="cluster">
<title>cluster_AccountModule_imports</title>
<polygon fill="none" stroke="black" points="1995,-40.8 1995,-92.8 2279,-92.8 2279,-40.8 1995,-40.8"/>
</g>
<g id="clust16" class="cluster">
<title>cluster_AppModule</title>
<polygon fill="none" stroke="black" stroke-dasharray="1,5" points="2726,-108.8 2726,-320.8 3746,-320.8 3746,-108.8 2726,-108.8"/>
</g>
<g id="clust17" class="cluster">
<title>cluster_AppModule_declarations</title>
<polygon fill="none" stroke="black" points="3247,-116.8 3247,-168.8 3369,-168.8 3369,-116.8 3247,-116.8"/>
</g>
<g id="clust19" class="cluster">
<title>cluster_AppModule_imports</title>
<polygon fill="none" stroke="black" points="3377,-116.8 3377,-168.8 3738,-168.8 3738,-116.8 3377,-116.8"/>
</g>
<g id="clust21" class="cluster">
<title>cluster_AppModule_bootstrap</title>
<polygon fill="none" stroke="black" points="3246,-260.8 3246,-312.8 3370,-312.8 3370,-260.8 3246,-260.8"/>
</g>
<g id="clust22" class="cluster">
<title>cluster_AppModule_providers</title>
<polygon fill="none" stroke="black" points="2734,-116.8 2734,-168.8 3239,-168.8 3239,-116.8 2734,-116.8"/>
</g>
<g id="clust29" class="cluster">
<title>cluster_BasketModule</title>
<polygon fill="none" stroke="black" stroke-dasharray="1,5" points="3754,-32.8 3754,-168.8 4072,-168.8 4072,-32.8 3754,-32.8"/>
</g>
<g id="clust30" class="cluster">
<title>cluster_BasketModule_declarations</title>
<polygon fill="none" stroke="black" points="3928,-40.8 3928,-92.8 4064,-92.8 4064,-40.8 3928,-40.8"/>
</g>
<g id="clust32" class="cluster">
<title>cluster_BasketModule_imports</title>
<polygon fill="none" stroke="black" points="3762,-40.8 3762,-92.8 3920,-92.8 3920,-40.8 3762,-40.8"/>
</g>
<g id="clust42" class="cluster">
<title>cluster_CheckoutModule</title>
<polygon fill="none" stroke="black" stroke-dasharray="1,5" points="4080,-32.8 4080,-168.8 5425,-168.8 5425,-32.8 4080,-32.8"/>
</g>
<g id="clust43" class="cluster">
<title>cluster_CheckoutModule_declarations</title>
<polygon fill="none" stroke="black" points="4270,-40.8 4270,-92.8 5417,-92.8 5417,-40.8 4270,-40.8"/>
</g>
<g id="clust50" class="cluster">
<title>cluster_CheckoutModule_imports</title>
<polygon fill="none" stroke="black" points="4088,-40.8 4088,-92.8 4262,-92.8 4262,-40.8 4088,-40.8"/>
</g>
<g id="clust60" class="cluster">
<title>cluster_CoreModule</title>
<polygon fill="none" stroke="black" stroke-dasharray="1,5" points="3754,-184.8 3754,-252.8 5110,-252.8 5110,-184.8 3754,-184.8"/>
</g>
<g id="clust61" class="cluster">
<title>cluster_CoreModule_declarations</title>
<polygon fill="none" stroke="black" points="4443,-192.8 4443,-244.8 5102,-244.8 5102,-192.8 4443,-192.8"/>
</g>
<g id="clust67" class="cluster">
<title>cluster_CoreModule_exports</title>
<polygon fill="none" stroke="black" points="3762,-192.8 3762,-244.8 4435,-244.8 4435,-192.8 3762,-192.8"/>
</g>
<g id="clust70" class="cluster">
<title>cluster_HomeModule</title>
<polygon fill="none" stroke="black" stroke-dasharray="1,5" points="3181,-32.8 3181,-100.8 3657,-100.8 3657,-32.8 3181,-32.8"/>
</g>
<g id="clust71" class="cluster">
<title>cluster_HomeModule_declarations</title>
<polygon fill="none" stroke="black" points="3517,-40.8 3517,-92.8 3649,-92.8 3649,-40.8 3517,-40.8"/>
</g>
<g id="clust73" class="cluster">
<title>cluster_HomeModule_imports</title>
<polygon fill="none" stroke="black" points="3355,-40.8 3355,-92.8 3509,-92.8 3509,-40.8 3355,-40.8"/>
</g>
<g id="clust74" class="cluster">
<title>cluster_HomeModule_exports</title>
<polygon fill="none" stroke="black" points="3189,-40.8 3189,-92.8 3347,-92.8 3347,-40.8 3189,-40.8"/>
</g>
<g id="clust83" class="cluster">
<title>cluster_OrdersModule</title>
<polygon fill="none" stroke="black" stroke-dasharray="1,5" points="5433,-32.8 5433,-168.8 5923,-168.8 5923,-32.8 5433,-32.8"/>
</g>
<g id="clust84" class="cluster">
<title>cluster_OrdersModule_declarations</title>
<polygon fill="none" stroke="black" points="5607,-40.8 5607,-92.8 5915,-92.8 5915,-40.8 5607,-40.8"/>
</g>
<g id="clust87" class="cluster">
<title>cluster_OrdersModule_imports</title>
<polygon fill="none" stroke="black" points="5441,-40.8 5441,-92.8 5599,-92.8 5599,-40.8 5441,-40.8"/>
</g>
<g id="clust97" class="cluster">
<title>cluster_SharedModule</title>
<polygon fill="none" stroke="black" stroke-dasharray="1,5" points="8,-108.8 8,-176.8 1979,-176.8 1979,-108.8 8,-108.8"/>
</g>
<g id="clust98" class="cluster">
<title>cluster_SharedModule_declarations</title>
<polygon fill="none" stroke="black" points="1009,-116.8 1009,-168.8 1971,-168.8 1971,-116.8 1009,-116.8"/>
</g>
<g id="clust106" class="cluster">
<title>cluster_SharedModule_exports</title>
<polygon fill="none" stroke="black" points="16,-116.8 16,-168.8 1001,-168.8 1001,-116.8 16,-116.8"/>
</g>
<g id="clust109" class="cluster">
<title>cluster_ShopModule</title>
<polygon fill="none" stroke="black" stroke-dasharray="1,5" points="5931,-32.8 5931,-168.8 6582,-168.8 6582,-32.8 5931,-32.8"/>
</g>
<g id="clust110" class="cluster">
<title>cluster_ShopModule_declarations</title>
<polygon fill="none" stroke="black" points="6097,-40.8 6097,-92.8 6574,-92.8 6574,-40.8 6097,-40.8"/>
</g>
<g id="clust114" class="cluster">
<title>cluster_ShopModule_imports</title>
<polygon fill="none" stroke="black" points="5939,-40.8 5939,-92.8 6089,-92.8 6089,-40.8 5939,-40.8"/>
</g>
<!-- AccountComponent -->
<g id="node1" class="node">
<title>AccountComponent</title>
<polygon fill="#ffffb3" stroke="black" points="2702.26,-84.8 2573.74,-84.8 2573.74,-48.8 2702.26,-48.8 2702.26,-84.8"/>
<text text-anchor="middle" x="2638" y="-62.6" font-family="Times,serif" font-size="14.00">AccountComponent</text>
</g>
<!-- AccountModule -->
<g id="node4" class="node">
<title>AccountModule</title>
<polygon fill="#8dd3c7" stroke="black" points="2412.48,-160.8 2409.48,-164.8 2388.48,-164.8 2385.48,-160.8 2305.52,-160.8 2305.52,-124.8 2412.48,-124.8 2412.48,-160.8"/>
<text text-anchor="middle" x="2359" y="-138.6" font-family="Times,serif" font-size="14.00">AccountModule</text>
</g>
<!-- AccountComponent&#45;&gt;AccountModule -->
<g id="edge1" class="edge">
<title>AccountComponent&#45;&gt;AccountModule</title>
<path fill="none" stroke="black" d="M2638,-85C2638,-109.16 2638,-148.8 2638,-148.8 2638,-148.8 2422.79,-148.8 2422.79,-148.8"/>
<polygon fill="black" stroke="black" points="2422.79,-145.3 2412.79,-148.8 2422.79,-152.3 2422.79,-145.3"/>
</g>
<!-- LoginComponent -->
<g id="node2" class="node">
<title>LoginComponent</title>
<polygon fill="#ffffb3" stroke="black" points="2555.27,-84.8 2440.73,-84.8 2440.73,-48.8 2555.27,-48.8 2555.27,-84.8"/>
<text text-anchor="middle" x="2498" y="-62.6" font-family="Times,serif" font-size="14.00">LoginComponent</text>
</g>
<!-- LoginComponent&#45;&gt;AccountModule -->
<g id="edge2" class="edge">
<title>LoginComponent&#45;&gt;AccountModule</title>
<path fill="none" stroke="black" d="M2498,-84.83C2498,-105.57 2498,-136.8 2498,-136.8 2498,-136.8 2422.74,-136.8 2422.74,-136.8"/>
<polygon fill="black" stroke="black" points="2422.74,-133.3 2412.74,-136.8 2422.74,-140.3 2422.74,-133.3"/>
</g>
<!-- RegisterComponent -->
<g id="node3" class="node">
<title>RegisterComponent</title>
<polygon fill="#ffffb3" stroke="black" points="2422.99,-84.8 2295.01,-84.8 2295.01,-48.8 2422.99,-48.8 2422.99,-84.8"/>
<text text-anchor="middle" x="2359" y="-62.6" font-family="Times,serif" font-size="14.00">RegisterComponent</text>
</g>
<!-- RegisterComponent&#45;&gt;AccountModule -->
<g id="edge3" class="edge">
<title>RegisterComponent&#45;&gt;AccountModule</title>
<path fill="none" stroke="black" d="M2359,-84.81C2359,-84.81 2359,-114.65 2359,-114.65"/>
<polygon fill="black" stroke="black" points="2355.5,-114.65 2359,-124.65 2362.5,-114.65 2355.5,-114.65"/>
</g>
<!-- AccountRoutingModule -->
<g id="node5" class="node">
<title>AccountRoutingModule</title>
<polygon fill="#8dd3c7" stroke="black" points="2271.1,-84.8 2268.1,-88.8 2247.1,-88.8 2244.1,-84.8 2118.9,-84.8 2118.9,-48.8 2271.1,-48.8 2271.1,-84.8"/>
<text text-anchor="middle" x="2195" y="-62.6" font-family="Times,serif" font-size="14.00">AccountRoutingModule</text>
</g>
<!-- AccountRoutingModule&#45;&gt;AccountModule -->
<g id="edge4" class="edge">
<title>AccountRoutingModule&#45;&gt;AccountModule</title>
<path fill="none" stroke="black" d="M2195,-84.81C2195,-107.29 2195,-142.8 2195,-142.8 2195,-142.8 2295.3,-142.8 2295.3,-142.8"/>
<polygon fill="black" stroke="black" points="2295.3,-146.3 2305.3,-142.8 2295.3,-139.3 2295.3,-146.3"/>
</g>
<!-- SharedModule -->
<g id="node6" class="node">
<title>SharedModule</title>
<polygon fill="#8dd3c7" stroke="black" points="2101.43,-84.8 2098.43,-88.8 2077.43,-88.8 2074.43,-84.8 2002.57,-84.8 2002.57,-48.8 2101.43,-48.8 2101.43,-84.8"/>
<text text-anchor="middle" x="2052" y="-62.6" font-family="Times,serif" font-size="14.00">SharedModule</text>
</g>
<!-- SharedModule&#45;&gt;AccountModule -->
<g id="edge5" class="edge">
<title>SharedModule&#45;&gt;AccountModule</title>
<path fill="none" stroke="black" d="M2090.28,-84.83C2090.28,-109.78 2090.28,-151.8 2090.28,-151.8 2090.28,-151.8 2295.27,-151.8 2295.27,-151.8"/>
<polygon fill="black" stroke="black" points="2295.27,-155.3 2305.27,-151.8 2295.27,-148.3 2295.27,-155.3"/>
</g>
<!-- CoreModule -->
<g id="node10" class="node">
<title>CoreModule</title>
<polygon fill="#8dd3c7" stroke="black" points="3730.27,-160.8 3727.27,-164.8 3706.27,-164.8 3703.27,-160.8 3643.73,-160.8 3643.73,-124.8 3730.27,-124.8 3730.27,-160.8"/>
<text text-anchor="middle" x="3687" y="-138.6" font-family="Times,serif" font-size="14.00">CoreModule</text>
</g>
<!-- SharedModule&#45;&gt;CoreModule -->
<g id="edge29" class="edge">
<title>SharedModule&#45;&gt;CoreModule</title>
<path fill="none" stroke="black" d="M2024.66,-84.9C2024.66,-95.89 2024.66,-107.8 2024.66,-107.8 2024.66,-107.8 3687,-107.8 3687,-107.8 3687,-107.8 3687,-114.48 3687,-114.48"/>
<polygon fill="black" stroke="black" points="3683.5,-114.48 3687,-124.48 3690.5,-114.48 3683.5,-114.48"/>
</g>
<!-- HomeModule -->
<g id="node11" class="node">
<title>HomeModule</title>
<polygon fill="#8dd3c7" stroke="black" points="3478.77,-160.8 3475.77,-164.8 3454.77,-164.8 3451.77,-160.8 3385.23,-160.8 3385.23,-124.8 3478.77,-124.8 3478.77,-160.8"/>
<text text-anchor="middle" x="3432" y="-138.6" font-family="Times,serif" font-size="14.00">HomeModule</text>
</g>
<!-- SharedModule&#45;&gt;HomeModule -->
<g id="edge36" class="edge">
<title>SharedModule&#45;&gt;HomeModule</title>
<path fill="none" stroke="black" d="M2013.72,-84.85C2013.72,-99.17 2013.72,-116.8 2013.72,-116.8 2013.72,-116.8 3403.87,-116.8 3403.87,-116.8 3403.87,-116.8 3403.87,-117.59 3403.87,-117.59"/>
<polygon fill="black" stroke="black" points="3400.37,-114.74 3403.87,-124.74 3407.37,-114.74 3400.37,-114.74"/>
</g>
<!-- BasketModule -->
<g id="node17" class="node">
<title>BasketModule</title>
<polygon fill="#8dd3c7" stroke="black" points="3889.66,-160.8 3886.66,-164.8 3865.66,-164.8 3862.66,-160.8 3792.34,-160.8 3792.34,-124.8 3889.66,-124.8 3889.66,-160.8"/>
<text text-anchor="middle" x="3841" y="-138.6" font-family="Times,serif" font-size="14.00">BasketModule</text>
</g>
<!-- SharedModule&#45;&gt;BasketModule -->
<g id="edge16" class="edge">
<title>SharedModule&#45;&gt;BasketModule</title>
<path fill="none" stroke="black" d="M2035.6,-85.22C2035.6,-94.08 2035.6,-102.8 2035.6,-102.8 2035.6,-102.8 3824.72,-102.8 3824.72,-102.8 3824.72,-102.8 3824.72,-114.67 3824.72,-114.67"/>
<polygon fill="black" stroke="black" points="3821.22,-114.67 3824.72,-124.67 3828.22,-114.67 3821.22,-114.67"/>
</g>
<!-- CheckoutModule -->
<g id="node25" class="node">
<title>CheckoutModule</title>
<polygon fill="#8dd3c7" stroke="black" points="4720.71,-160.8 4717.71,-164.8 4696.71,-164.8 4693.71,-160.8 4607.29,-160.8 4607.29,-124.8 4720.71,-124.8 4720.71,-160.8"/>
<text text-anchor="middle" x="4664" y="-138.6" font-family="Times,serif" font-size="14.00">CheckoutModule</text>
</g>
<!-- SharedModule&#45;&gt;CheckoutModule -->
<g id="edge24" class="edge">
<title>SharedModule&#45;&gt;CheckoutModule</title>
<path fill="none" stroke="black" d="M2046.53,-85.04C2046.53,-92.23 2046.53,-98.8 2046.53,-98.8 2046.53,-98.8 4622.89,-98.8 4622.89,-98.8 4622.89,-98.8 4622.89,-114.65 4622.89,-114.65"/>
<polygon fill="black" stroke="black" points="4619.39,-114.65 4622.89,-124.65 4626.39,-114.65 4619.39,-114.65"/>
</g>
<!-- OrdersModule -->
<g id="node40" class="node">
<title>OrdersModule</title>
<polygon fill="#8dd3c7" stroke="black" points="5645.65,-160.8 5642.65,-164.8 5621.65,-164.8 5618.65,-160.8 5548.35,-160.8 5548.35,-124.8 5645.65,-124.8 5645.65,-160.8"/>
<text text-anchor="middle" x="5597" y="-138.6" font-family="Times,serif" font-size="14.00">OrdersModule</text>
</g>
<!-- SharedModule&#45;&gt;OrdersModule -->
<g id="edge41" class="edge">
<title>SharedModule&#45;&gt;OrdersModule</title>
<path fill="none" stroke="black" d="M2057.47,-84.96C2057.47,-89.84 2057.47,-93.8 2057.47,-93.8 2057.47,-93.8 5562.58,-93.8 5562.58,-93.8 5562.58,-93.8 5562.58,-114.55 5562.58,-114.55"/>
<polygon fill="black" stroke="black" points="5559.08,-114.55 5562.58,-124.55 5566.08,-114.55 5559.08,-114.55"/>
</g>
<!-- BasketSummaryComponent  -->
<g id="node48" class="node">
<title>BasketSummaryComponent </title>
<polygon fill="#fb8072" stroke="black" points="992.88,-160.8 815.12,-160.8 815.12,-124.8 992.88,-124.8 992.88,-160.8"/>
<text text-anchor="middle" x="904" y="-138.6" font-family="Times,serif" font-size="14.00">BasketSummaryComponent </text>
</g>
<!-- SharedModule&#45;&gt;BasketSummaryComponent  -->
<g id="edge48" class="edge">
<title>SharedModule&#45;&gt;BasketSummaryComponent </title>
<path fill="none" stroke="black" stroke-dasharray="5,2" d="M2002.67,-66.8C1782.94,-66.8 904,-66.8 904,-66.8 904,-66.8 904,-114.79 904,-114.79"/>
<polygon fill="black" stroke="black" points="900.5,-114.79 904,-124.79 907.5,-114.79 900.5,-114.79"/>
</g>
<!-- OrderTotalsComponent  -->
<g id="node49" class="node">
<title>OrderTotalsComponent </title>
<polygon fill="#fb8072" stroke="black" points="797.47,-160.8 644.53,-160.8 644.53,-124.8 797.47,-124.8 797.47,-160.8"/>
<text text-anchor="middle" x="721" y="-138.6" font-family="Times,serif" font-size="14.00">OrderTotalsComponent </text>
</g>
<!-- SharedModule&#45;&gt;OrderTotalsComponent  -->
<g id="edge49" class="edge">
<title>SharedModule&#45;&gt;OrderTotalsComponent </title>
<path fill="none" stroke="black" stroke-dasharray="5,2" d="M2002.65,-63.8C1761.77,-63.8 721,-63.8 721,-63.8 721,-63.8 721,-114.48 721,-114.48"/>
<polygon fill="black" stroke="black" points="717.5,-114.48 721,-124.48 724.5,-114.48 717.5,-114.48"/>
</g>
<!-- PagerComponent  -->
<g id="node50" class="node">
<title>PagerComponent </title>
<polygon fill="#fb8072" stroke="black" points="626.21,-160.8 509.79,-160.8 509.79,-124.8 626.21,-124.8 626.21,-160.8"/>
<text text-anchor="middle" x="568" y="-138.6" font-family="Times,serif" font-size="14.00">PagerComponent </text>
</g>
<!-- SharedModule&#45;&gt;PagerComponent  -->
<g id="edge50" class="edge">
<title>SharedModule&#45;&gt;PagerComponent </title>
<path fill="none" stroke="black" stroke-dasharray="5,2" d="M2002.62,-60.8C1745.13,-60.8 568,-60.8 568,-60.8 568,-60.8 568,-114.6 568,-114.6"/>
<polygon fill="black" stroke="black" points="564.5,-114.6 568,-124.6 571.5,-114.6 564.5,-114.6"/>
</g>
<!-- PagingHeaderComponent  -->
<g id="node51" class="node">
<title>PagingHeaderComponent </title>
<polygon fill="#fb8072" stroke="black" points="492.13,-160.8 327.87,-160.8 327.87,-124.8 492.13,-124.8 492.13,-160.8"/>
<text text-anchor="middle" x="410" y="-138.6" font-family="Times,serif" font-size="14.00">PagingHeaderComponent </text>
</g>
<!-- SharedModule&#45;&gt;PagingHeaderComponent  -->
<g id="edge51" class="edge">
<title>SharedModule&#45;&gt;PagingHeaderComponent </title>
<path fill="none" stroke="black" stroke-dasharray="5,2" d="M2002.41,-57.8C1728.21,-57.8 410,-57.8 410,-57.8 410,-57.8 410,-114.77 410,-114.77"/>
<polygon fill="black" stroke="black" points="406.5,-114.77 410,-124.77 413.5,-114.77 406.5,-114.77"/>
</g>
<!-- StepperComponent  -->
<g id="node52" class="node">
<title>StepperComponent </title>
<polygon fill="#fb8072" stroke="black" points="309.6,-160.8 182.4,-160.8 182.4,-124.8 309.6,-124.8 309.6,-160.8"/>
<text text-anchor="middle" x="246" y="-138.6" font-family="Times,serif" font-size="14.00">StepperComponent </text>
</g>
<!-- SharedModule&#45;&gt;StepperComponent  -->
<g id="edge52" class="edge">
<title>SharedModule&#45;&gt;StepperComponent </title>
<path fill="none" stroke="black" stroke-dasharray="5,2" d="M2002.76,-54.8C1713.31,-54.8 246,-54.8 246,-54.8 246,-54.8 246,-114.57 246,-114.57"/>
<polygon fill="black" stroke="black" points="242.5,-114.57 246,-124.57 249.5,-114.57 242.5,-114.57"/>
</g>
<!-- TextInputComponent  -->
<g id="node53" class="node">
<title>TextInputComponent </title>
<polygon fill="#fb8072" stroke="black" points="164.04,-160.8 23.96,-160.8 23.96,-124.8 164.04,-124.8 164.04,-160.8"/>
<text text-anchor="middle" x="94" y="-138.6" font-family="Times,serif" font-size="14.00">TextInputComponent </text>
</g>
<!-- SharedModule&#45;&gt;TextInputComponent  -->
<g id="edge53" class="edge">
<title>SharedModule&#45;&gt;TextInputComponent </title>
<path fill="none" stroke="black" stroke-dasharray="5,2" d="M2002.62,-51.8C1698.62,-51.8 94,-51.8 94,-51.8 94,-51.8 94,-114.38 94,-114.38"/>
<polygon fill="black" stroke="black" points="90.5,-114.38 94,-124.38 97.5,-114.38 90.5,-114.38"/>
</g>
<!-- ShopModule -->
<g id="node57" class="node">
<title>ShopModule</title>
<polygon fill="#8dd3c7" stroke="black" points="6204.34,-160.8 6201.34,-164.8 6180.34,-164.8 6177.34,-160.8 6115.66,-160.8 6115.66,-124.8 6204.34,-124.8 6204.34,-160.8"/>
<text text-anchor="middle" x="6160" y="-138.6" font-family="Times,serif" font-size="14.00">ShopModule</text>
</g>
<!-- SharedModule&#45;&gt;ShopModule -->
<g id="edge57" class="edge">
<title>SharedModule&#45;&gt;ShopModule</title>
<path fill="none" stroke="black" d="M2068.4,-84.92C2068.4,-87.77 2068.4,-89.8 2068.4,-89.8 2068.4,-89.8 6145.28,-89.8 6145.28,-89.8 6145.28,-89.8 6145.28,-114.56 6145.28,-114.56"/>
<polygon fill="black" stroke="black" points="6141.78,-114.56 6145.28,-124.56 6148.78,-114.56 6141.78,-114.56"/>
</g>
<!-- AppComponent -->
<g id="node7" class="node">
<title>AppComponent</title>
<polygon fill="#ffffb3" stroke="black" points="3360.94,-160.8 3255.06,-160.8 3255.06,-124.8 3360.94,-124.8 3360.94,-160.8"/>
<text text-anchor="middle" x="3308" y="-138.6" font-family="Times,serif" font-size="14.00">AppComponent</text>
</g>
<!-- AppModule -->
<g id="node8" class="node">
<title>AppModule</title>
<polygon fill="#8dd3c7" stroke="black" points="3349.66,-236.8 3346.66,-240.8 3325.66,-240.8 3322.66,-236.8 3266.34,-236.8 3266.34,-200.8 3349.66,-200.8 3349.66,-236.8"/>
<text text-anchor="middle" x="3308" y="-214.6" font-family="Times,serif" font-size="14.00">AppModule</text>
</g>
<!-- AppComponent&#45;&gt;AppModule -->
<g id="edge6" class="edge">
<title>AppComponent&#45;&gt;AppModule</title>
<path fill="none" stroke="black" d="M3308,-160.81C3308,-160.81 3308,-190.65 3308,-190.65"/>
<polygon fill="black" stroke="black" points="3304.5,-190.65 3308,-200.65 3311.5,-190.65 3304.5,-190.65"/>
</g>
<!-- AppComponent  -->
<g id="node12" class="node">
<title>AppComponent </title>
<polygon fill="#80b1d3" stroke="black" points="3362.44,-304.8 3253.56,-304.8 3253.56,-268.8 3362.44,-268.8 3362.44,-304.8"/>
<text text-anchor="middle" x="3308" y="-282.6" font-family="Times,serif" font-size="14.00">AppComponent </text>
</g>
<!-- AppModule&#45;&gt;AppComponent  -->
<g id="edge10" class="edge">
<title>AppModule&#45;&gt;AppComponent </title>
<path fill="none" stroke="black" stroke-dasharray="1,5" d="M3308,-237.02C3308,-237.02 3308,-258.53 3308,-258.53"/>
<polygon fill="black" stroke="black" points="3304.5,-258.53 3308,-268.53 3311.5,-258.53 3304.5,-258.53"/>
</g>
<!-- AppRoutingModule -->
<g id="node9" class="node">
<title>AppRoutingModule</title>
<polygon fill="#8dd3c7" stroke="black" points="3625.28,-160.8 3622.28,-164.8 3601.28,-164.8 3598.28,-160.8 3496.72,-160.8 3496.72,-124.8 3625.28,-124.8 3625.28,-160.8"/>
<text text-anchor="middle" x="3561" y="-138.6" font-family="Times,serif" font-size="14.00">AppRoutingModule</text>
</g>
<!-- AppRoutingModule&#45;&gt;AppModule -->
<g id="edge7" class="edge">
<title>AppRoutingModule&#45;&gt;AppModule</title>
<path fill="none" stroke="black" d="M3561,-160.81C3561,-183.29 3561,-218.8 3561,-218.8 3561,-218.8 3359.78,-218.8 3359.78,-218.8"/>
<polygon fill="black" stroke="black" points="3359.78,-215.3 3349.78,-218.8 3359.78,-222.3 3359.78,-215.3"/>
</g>
<!-- CoreModule&#45;&gt;AppModule -->
<g id="edge8" class="edge">
<title>CoreModule&#45;&gt;AppModule</title>
<path fill="none" stroke="black" d="M3720.74,-160.83C3720.74,-185.78 3720.74,-227.8 3720.74,-227.8 3720.74,-227.8 3359.85,-227.8 3359.85,-227.8"/>
<polygon fill="black" stroke="black" points="3359.85,-224.3 3349.85,-227.8 3359.85,-231.3 3359.85,-224.3"/>
</g>
<!-- MainHeaderComponent  -->
<g id="node31" class="node">
<title>MainHeaderComponent </title>
<polygon fill="#fb8072" stroke="black" points="4098.3,-236.8 3943.7,-236.8 3943.7,-200.8 4098.3,-200.8 4098.3,-236.8"/>
<text text-anchor="middle" x="4021" y="-214.6" font-family="Times,serif" font-size="14.00">MainHeaderComponent </text>
</g>
<!-- CoreModule&#45;&gt;MainHeaderComponent  -->
<g id="edge30" class="edge">
<title>CoreModule&#45;&gt;MainHeaderComponent </title>
<path fill="none" stroke="black" stroke-dasharray="5,2" d="M3691.82,-161.04C3691.82,-176.37 3691.82,-195.8 3691.82,-195.8 3691.82,-195.8 3999.66,-195.8 3999.66,-195.8 3999.66,-195.8 3999.66,-196.29 3999.66,-196.29"/>
<polygon fill="black" stroke="black" points="3996.16,-190.68 3999.66,-200.68 4003.16,-190.68 3996.16,-190.68"/>
</g>
<!-- MainNavbarComponent  -->
<g id="node32" class="node">
<title>MainNavbarComponent </title>
<polygon fill="#fb8072" stroke="black" points="3925.58,-236.8 3770.42,-236.8 3770.42,-200.8 3925.58,-200.8 3925.58,-236.8"/>
<text text-anchor="middle" x="3848" y="-214.6" font-family="Times,serif" font-size="14.00">MainNavbarComponent </text>
</g>
<!-- CoreModule&#45;&gt;MainNavbarComponent  -->
<g id="edge31" class="edge">
<title>CoreModule&#45;&gt;MainNavbarComponent </title>
<path fill="none" stroke="black" stroke-dasharray="5,2" d="M3730.51,-142.8C3755.19,-142.8 3781.19,-142.8 3781.19,-142.8 3781.19,-142.8 3781.19,-190.79 3781.19,-190.79"/>
<polygon fill="black" stroke="black" points="3777.69,-190.79 3781.19,-200.79 3784.69,-190.79 3777.69,-190.79"/>
</g>
<!-- NotFoundComponent  -->
<g id="node33" class="node">
<title>NotFoundComponent </title>
<polygon fill="#fb8072" stroke="black" points="4426.62,-236.8 4285.38,-236.8 4285.38,-200.8 4426.62,-200.8 4426.62,-236.8"/>
<text text-anchor="middle" x="4356" y="-214.6" font-family="Times,serif" font-size="14.00">NotFoundComponent </text>
</g>
<!-- CoreModule&#45;&gt;NotFoundComponent  -->
<g id="edge32" class="edge">
<title>CoreModule&#45;&gt;NotFoundComponent </title>
<path fill="none" stroke="black" stroke-dasharray="5,2" d="M3711.1,-161.29C3711.1,-172.94 3711.1,-185.8 3711.1,-185.8 3711.1,-185.8 4356,-185.8 4356,-185.8 4356,-185.8 4356,-190.76 4356,-190.76"/>
<polygon fill="black" stroke="black" points="4352.5,-190.76 4356,-200.76 4359.5,-190.76 4352.5,-190.76"/>
</g>
<!-- ServerErrorComponent  -->
<g id="node34" class="node">
<title>ServerErrorComponent </title>
<polygon fill="#fb8072" stroke="black" points="4267.41,-236.8 4116.59,-236.8 4116.59,-200.8 4267.41,-200.8 4267.41,-236.8"/>
<text text-anchor="middle" x="4192" y="-214.6" font-family="Times,serif" font-size="14.00">ServerErrorComponent </text>
</g>
<!-- CoreModule&#45;&gt;ServerErrorComponent  -->
<g id="edge33" class="edge">
<title>CoreModule&#45;&gt;ServerErrorComponent </title>
<path fill="none" stroke="black" stroke-dasharray="5,2" d="M3701.46,-160.95C3701.46,-174.54 3701.46,-190.8 3701.46,-190.8 3701.46,-190.8 4162.42,-190.8 4162.42,-190.8 4162.42,-190.8 4162.42,-191.78 4162.42,-191.78"/>
<polygon fill="black" stroke="black" points="4158.92,-190.59 4162.42,-200.59 4165.92,-190.59 4158.92,-190.59"/>
</g>
<!-- HomeModule&#45;&gt;AppModule -->
<g id="edge9" class="edge">
<title>HomeModule&#45;&gt;AppModule</title>
<path fill="none" stroke="black" d="M3432,-161.11C3432,-180.95 3432,-209.8 3432,-209.8 3432,-209.8 3359.98,-209.8 3359.98,-209.8"/>
<polygon fill="black" stroke="black" points="3359.98,-206.3 3349.98,-209.8 3359.98,-213.3 3359.98,-206.3"/>
</g>
<!-- HomeRoutingModule  -->
<g id="node37" class="node">
<title>HomeRoutingModule </title>
<polygon fill="#fb8072" stroke="black" points="3339.38,-84.8 3196.62,-84.8 3196.62,-48.8 3339.38,-48.8 3339.38,-84.8"/>
<text text-anchor="middle" x="3268" y="-62.6" font-family="Times,serif" font-size="14.00">HomeRoutingModule </text>
</g>
<!-- HomeModule&#45;&gt;HomeRoutingModule  -->
<g id="edge37" class="edge">
<title>HomeModule&#45;&gt;HomeRoutingModule </title>
<path fill="none" stroke="black" stroke-dasharray="5,2" d="M3422.62,-124.77C3422.62,-117.95 3422.62,-111.8 3422.62,-111.8 3422.62,-111.8 3297.24,-111.8 3297.24,-111.8 3297.24,-111.8 3297.24,-94.84 3297.24,-94.84"/>
<polygon fill="black" stroke="black" points="3300.74,-94.84 3297.24,-84.84 3293.74,-94.84 3300.74,-94.84"/>
</g>
<!-- ErrorInterceptor -->
<g id="node13" class="node">
<title>ErrorInterceptor</title>
<ellipse fill="#fdb462" stroke="black" cx="3157" cy="-142.8" rx="73.54" ry="18"/>
<text text-anchor="middle" x="3157" y="-138.6" font-family="Times,serif" font-size="14.00">ErrorInterceptor</text>
</g>
<!-- ErrorInterceptor&#45;&gt;AppModule -->
<g id="edge11" class="edge">
<title>ErrorInterceptor&#45;&gt;AppModule</title>
<path fill="none" stroke="black" d="M3157,-161.11C3157,-180.95 3157,-209.8 3157,-209.8 3157,-209.8 3255.94,-209.8 3255.94,-209.8"/>
<polygon fill="black" stroke="black" points="3255.94,-213.3 3265.94,-209.8 3255.94,-206.3 3255.94,-213.3"/>
</g>
<!-- JwtInterceptor -->
<g id="node14" class="node">
<title>JwtInterceptor</title>
<ellipse fill="#fdb462" stroke="black" cx="2998" cy="-142.8" rx="66.62" ry="18"/>
<text text-anchor="middle" x="2998" y="-138.6" font-family="Times,serif" font-size="14.00">JwtInterceptor</text>
</g>
<!-- JwtInterceptor&#45;&gt;AppModule -->
<g id="edge12" class="edge">
<title>JwtInterceptor&#45;&gt;AppModule</title>
<path fill="none" stroke="black" d="M2998,-160.81C2998,-183.29 2998,-218.8 2998,-218.8 2998,-218.8 3256.19,-218.8 3256.19,-218.8"/>
<polygon fill="black" stroke="black" points="3256.19,-222.3 3266.19,-218.8 3256.19,-215.3 3256.19,-222.3"/>
</g>
<!-- LoadingInterceptor -->
<g id="node15" class="node">
<title>LoadingInterceptor</title>
<ellipse fill="#fdb462" stroke="black" cx="2828" cy="-142.8" rx="85.65" ry="18"/>
<text text-anchor="middle" x="2828" y="-138.6" font-family="Times,serif" font-size="14.00">LoadingInterceptor</text>
</g>
<!-- LoadingInterceptor&#45;&gt;AppModule -->
<g id="edge13" class="edge">
<title>LoadingInterceptor&#45;&gt;AppModule</title>
<path fill="none" stroke="black" d="M2828,-160.83C2828,-185.78 2828,-227.8 2828,-227.8 2828,-227.8 3256.24,-227.8 3256.24,-227.8"/>
<polygon fill="black" stroke="black" points="3256.24,-231.3 3266.24,-227.8 3256.24,-224.3 3256.24,-231.3"/>
</g>
<!-- BasketComponent -->
<g id="node16" class="node">
<title>BasketComponent</title>
<polygon fill="#ffffb3" stroke="black" points="4055.94,-84.8 3936.06,-84.8 3936.06,-48.8 4055.94,-48.8 4055.94,-84.8"/>
<text text-anchor="middle" x="3996" y="-62.6" font-family="Times,serif" font-size="14.00">BasketComponent</text>
</g>
<!-- BasketComponent&#45;&gt;BasketModule -->
<g id="edge14" class="edge">
<title>BasketComponent&#45;&gt;BasketModule</title>
<path fill="none" stroke="black" d="M3939.94,-84.83C3939.94,-109.78 3939.94,-151.8 3939.94,-151.8 3939.94,-151.8 3899.89,-151.8 3899.89,-151.8"/>
<polygon fill="black" stroke="black" points="3899.89,-148.3 3889.89,-151.8 3899.89,-155.3 3899.89,-148.3"/>
</g>
<!-- BasketRoutingModule -->
<g id="node18" class="node">
<title>BasketRoutingModule</title>
<polygon fill="#8dd3c7" stroke="black" points="3912.27,-84.8 3909.27,-88.8 3888.27,-88.8 3885.27,-84.8 3769.73,-84.8 3769.73,-48.8 3912.27,-48.8 3912.27,-84.8"/>
<text text-anchor="middle" x="3841" y="-62.6" font-family="Times,serif" font-size="14.00">BasketRoutingModule</text>
</g>
<!-- BasketRoutingModule&#45;&gt;BasketModule -->
<g id="edge15" class="edge">
<title>BasketRoutingModule&#45;&gt;BasketModule</title>
<path fill="none" stroke="black" d="M3857.28,-84.81C3857.28,-84.81 3857.28,-114.65 3857.28,-114.65"/>
<polygon fill="black" stroke="black" points="3853.78,-114.65 3857.28,-124.65 3860.78,-114.65 3853.78,-114.65"/>
</g>
<!-- CheckoutAddressComponent -->
<g id="node19" class="node">
<title>CheckoutAddressComponent</title>
<polygon fill="#ffffb3" stroke="black" points="5409.37,-84.8 5228.63,-84.8 5228.63,-48.8 5409.37,-48.8 5409.37,-84.8"/>
<text text-anchor="middle" x="5319" y="-62.6" font-family="Times,serif" font-size="14.00">CheckoutAddressComponent</text>
</g>
<!-- CheckoutAddressComponent&#45;&gt;CheckoutModule -->
<g id="edge17" class="edge">
<title>CheckoutAddressComponent&#45;&gt;CheckoutModule</title>
<path fill="none" stroke="black" d="M5319,-84.83C5319,-109.78 5319,-151.8 5319,-151.8 5319,-151.8 4730.7,-151.8 4730.7,-151.8"/>
<polygon fill="black" stroke="black" points="4730.7,-148.3 4720.7,-151.8 4730.7,-155.3 4730.7,-148.3"/>
</g>
<!-- CheckoutComponent -->
<g id="node20" class="node">
<title>CheckoutComponent</title>
<polygon fill="#ffffb3" stroke="black" points="5210.49,-84.8 5075.51,-84.8 5075.51,-48.8 5210.49,-48.8 5210.49,-84.8"/>
<text text-anchor="middle" x="5143" y="-62.6" font-family="Times,serif" font-size="14.00">CheckoutComponent</text>
</g>
<!-- CheckoutComponent&#45;&gt;CheckoutModule -->
<g id="edge18" class="edge">
<title>CheckoutComponent&#45;&gt;CheckoutModule</title>
<path fill="none" stroke="black" d="M5084.78,-84.81C5084.78,-107.29 5084.78,-142.8 5084.78,-142.8 5084.78,-142.8 4730.75,-142.8 4730.75,-142.8"/>
<polygon fill="black" stroke="black" points="4730.75,-139.3 4720.75,-142.8 4730.75,-146.3 4730.75,-139.3"/>
</g>
<!-- CheckoutDeliveryComponent -->
<g id="node21" class="node">
<title>CheckoutDeliveryComponent</title>
<polygon fill="#ffffb3" stroke="black" points="5057.97,-84.8 4874.03,-84.8 4874.03,-48.8 5057.97,-48.8 5057.97,-84.8"/>
<text text-anchor="middle" x="4966" y="-62.6" font-family="Times,serif" font-size="14.00">CheckoutDeliveryComponent</text>
</g>
<!-- CheckoutDeliveryComponent&#45;&gt;CheckoutModule -->
<g id="edge19" class="edge">
<title>CheckoutDeliveryComponent&#45;&gt;CheckoutModule</title>
<path fill="none" stroke="black" d="M4905.86,-85.11C4905.86,-104.95 4905.86,-133.8 4905.86,-133.8 4905.86,-133.8 4730.71,-133.8 4730.71,-133.8"/>
<polygon fill="black" stroke="black" points="4730.71,-130.3 4720.71,-133.8 4730.71,-137.3 4730.71,-130.3"/>
</g>
<!-- CheckoutPaymentComponent -->
<g id="node22" class="node">
<title>CheckoutPaymentComponent</title>
<polygon fill="#ffffb3" stroke="black" points="4855.98,-84.8 4672.02,-84.8 4672.02,-48.8 4855.98,-48.8 4855.98,-84.8"/>
<text text-anchor="middle" x="4764" y="-62.6" font-family="Times,serif" font-size="14.00">CheckoutPaymentComponent</text>
</g>
<!-- CheckoutPaymentComponent&#45;&gt;CheckoutModule -->
<g id="edge20" class="edge">
<title>CheckoutPaymentComponent&#45;&gt;CheckoutModule</title>
<path fill="none" stroke="black" d="M4696.31,-84.81C4696.31,-84.81 4696.31,-114.65 4696.31,-114.65"/>
<polygon fill="black" stroke="black" points="4692.81,-114.65 4696.31,-124.65 4699.81,-114.65 4692.81,-114.65"/>
</g>
<!-- CheckoutReviewComponent -->
<g id="node23" class="node">
<title>CheckoutReviewComponent</title>
<polygon fill="#ffffb3" stroke="black" points="4653.75,-84.8 4476.25,-84.8 4476.25,-48.8 4653.75,-48.8 4653.75,-84.8"/>
<text text-anchor="middle" x="4565" y="-62.6" font-family="Times,serif" font-size="14.00">CheckoutReviewComponent</text>
</g>
<!-- CheckoutReviewComponent&#45;&gt;CheckoutModule -->
<g id="edge21" class="edge">
<title>CheckoutReviewComponent&#45;&gt;CheckoutModule</title>
<path fill="none" stroke="black" d="M4638.38,-84.81C4638.38,-84.81 4638.38,-114.65 4638.38,-114.65"/>
<polygon fill="black" stroke="black" points="4634.88,-114.65 4638.38,-124.65 4641.88,-114.65 4634.88,-114.65"/>
</g>
<!-- CheckoutSuccessComponent -->
<g id="node24" class="node">
<title>CheckoutSuccessComponent</title>
<polygon fill="#ffffb3" stroke="black" points="4457.81,-84.8 4278.19,-84.8 4278.19,-48.8 4457.81,-48.8 4457.81,-84.8"/>
<text text-anchor="middle" x="4368" y="-62.6" font-family="Times,serif" font-size="14.00">CheckoutSuccessComponent</text>
</g>
<!-- CheckoutSuccessComponent&#45;&gt;CheckoutModule -->
<g id="edge22" class="edge">
<title>CheckoutSuccessComponent&#45;&gt;CheckoutModule</title>
<path fill="none" stroke="black" d="M4438.88,-85.11C4438.88,-104.95 4438.88,-133.8 4438.88,-133.8 4438.88,-133.8 4597.19,-133.8 4597.19,-133.8"/>
<polygon fill="black" stroke="black" points="4597.19,-137.3 4607.19,-133.8 4597.19,-130.3 4597.19,-137.3"/>
</g>
<!-- CheckoutRoutingModule -->
<g id="node26" class="node">
<title>CheckoutRoutingModule</title>
<polygon fill="#8dd3c7" stroke="black" points="4254.32,-84.8 4251.32,-88.8 4230.32,-88.8 4227.32,-84.8 4095.68,-84.8 4095.68,-48.8 4254.32,-48.8 4254.32,-84.8"/>
<text text-anchor="middle" x="4175" y="-62.6" font-family="Times,serif" font-size="14.00">CheckoutRoutingModule</text>
</g>
<!-- CheckoutRoutingModule&#45;&gt;CheckoutModule -->
<g id="edge23" class="edge">
<title>CheckoutRoutingModule&#45;&gt;CheckoutModule</title>
<path fill="none" stroke="black" d="M4208.29,-84.81C4208.29,-107.29 4208.29,-142.8 4208.29,-142.8 4208.29,-142.8 4597.21,-142.8 4597.21,-142.8"/>
<polygon fill="black" stroke="black" points="4597.21,-146.3 4607.21,-142.8 4597.21,-139.3 4597.21,-146.3"/>
</g>
<!-- MainHeaderComponent -->
<g id="node27" class="node">
<title>MainHeaderComponent</title>
<polygon fill="#ffffb3" stroke="black" points="4772.8,-236.8 4621.2,-236.8 4621.2,-200.8 4772.8,-200.8 4772.8,-236.8"/>
<text text-anchor="middle" x="4697" y="-214.6" font-family="Times,serif" font-size="14.00">MainHeaderComponent</text>
</g>
<!-- MainHeaderComponent&#45;&gt;CoreModule -->
<g id="edge25" class="edge">
<title>MainHeaderComponent&#45;&gt;CoreModule</title>
<path fill="none" stroke="black" d="M4670.98,-200.31C4670.98,-188.66 4670.98,-175.8 4670.98,-175.8 4670.98,-175.8 3662.9,-175.8 3662.9,-175.8 3662.9,-175.8 3662.9,-170.84 3662.9,-170.84"/>
<polygon fill="black" stroke="black" points="3666.4,-170.84 3662.9,-160.84 3659.4,-170.84 3666.4,-170.84"/>
</g>
<!-- MainNavbarComponent -->
<g id="node28" class="node">
<title>MainNavbarComponent</title>
<polygon fill="#ffffb3" stroke="black" points="4603.08,-236.8 4450.92,-236.8 4450.92,-200.8 4603.08,-200.8 4603.08,-236.8"/>
<text text-anchor="middle" x="4527" y="-214.6" font-family="Times,serif" font-size="14.00">MainNavbarComponent</text>
</g>
<!-- MainNavbarComponent&#45;&gt;CoreModule -->
<g id="edge26" class="edge">
<title>MainNavbarComponent&#45;&gt;CoreModule</title>
<path fill="none" stroke="black" d="M4466.89,-200.69C4466.89,-190.9 4466.89,-180.8 4466.89,-180.8 4466.89,-180.8 3653.26,-180.8 3653.26,-180.8 3653.26,-180.8 3653.26,-170.91 3653.26,-170.91"/>
<polygon fill="black" stroke="black" points="3656.76,-170.91 3653.26,-160.91 3649.76,-170.91 3656.76,-170.91"/>
</g>
<!-- NotFoundComponent -->
<g id="node29" class="node">
<title>NotFoundComponent</title>
<polygon fill="#ffffb3" stroke="black" points="5094.12,-236.8 4955.88,-236.8 4955.88,-200.8 5094.12,-200.8 5094.12,-236.8"/>
<text text-anchor="middle" x="5025" y="-214.6" font-family="Times,serif" font-size="14.00">NotFoundComponent</text>
</g>
<!-- NotFoundComponent&#45;&gt;CoreModule -->
<g id="edge27" class="edge">
<title>NotFoundComponent&#45;&gt;CoreModule</title>
<path fill="none" stroke="black" d="M5006.96,-200.56C5006.96,-185.23 5006.96,-165.8 5006.96,-165.8 5006.96,-165.8 3682.18,-165.8 3682.18,-165.8 3682.18,-165.8 3682.18,-165.31 3682.18,-165.31"/>
<polygon fill="black" stroke="black" points="3685.68,-170.92 3682.18,-160.92 3678.68,-170.92 3685.68,-170.92"/>
</g>
<!-- ServerErrorComponent -->
<g id="node30" class="node">
<title>ServerErrorComponent</title>
<polygon fill="#ffffb3" stroke="black" points="4937.91,-236.8 4790.09,-236.8 4790.09,-200.8 4937.91,-200.8 4937.91,-236.8"/>
<text text-anchor="middle" x="4864" y="-214.6" font-family="Times,serif" font-size="14.00">ServerErrorComponent</text>
</g>
<!-- ServerErrorComponent&#45;&gt;CoreModule -->
<g id="edge28" class="edge">
<title>ServerErrorComponent&#45;&gt;CoreModule</title>
<path fill="none" stroke="black" d="M4823.14,-200.65C4823.14,-187.06 4823.14,-170.8 4823.14,-170.8 4823.14,-170.8 3672.54,-170.8 3672.54,-170.8 3672.54,-170.8 3672.54,-169.82 3672.54,-169.82"/>
<polygon fill="black" stroke="black" points="3676.04,-171.01 3672.54,-161.01 3669.04,-171.01 3676.04,-171.01"/>
</g>
<!-- HomeComponent -->
<g id="node35" class="node">
<title>HomeComponent</title>
<polygon fill="#ffffb3" stroke="black" points="3640.55,-84.8 3525.45,-84.8 3525.45,-48.8 3640.55,-48.8 3640.55,-84.8"/>
<text text-anchor="middle" x="3583" y="-62.6" font-family="Times,serif" font-size="14.00">HomeComponent</text>
</g>
<!-- HomeComponent&#45;&gt;HomeModule -->
<g id="edge34" class="edge">
<title>HomeComponent&#45;&gt;HomeModule</title>
<path fill="none" stroke="black" d="M3575.31,-85.08C3575.31,-100.75 3575.31,-120.8 3575.31,-120.8 3575.31,-120.8 3460.13,-120.8 3460.13,-120.8 3460.13,-120.8 3460.13,-121.18 3460.13,-121.18"/>
<polygon fill="black" stroke="black" points="3456.63,-114.63 3460.13,-124.63 3463.63,-114.63 3456.63,-114.63"/>
</g>
<!-- HomeRoutingModule -->
<g id="node36" class="node">
<title>HomeRoutingModule</title>
<polygon fill="#8dd3c7" stroke="black" points="3501.38,-84.8 3498.38,-88.8 3477.38,-88.8 3474.38,-84.8 3362.62,-84.8 3362.62,-48.8 3501.38,-48.8 3501.38,-84.8"/>
<text text-anchor="middle" x="3432" y="-62.6" font-family="Times,serif" font-size="14.00">HomeRoutingModule</text>
</g>
<!-- HomeRoutingModule&#45;&gt;HomeModule -->
<g id="edge35" class="edge">
<title>HomeRoutingModule&#45;&gt;HomeModule</title>
<path fill="none" stroke="black" d="M3441.38,-84.81C3441.38,-84.81 3441.38,-114.65 3441.38,-114.65"/>
<polygon fill="black" stroke="black" points="3437.88,-114.65 3441.38,-124.65 3444.88,-114.65 3437.88,-114.65"/>
</g>
<!-- OrderDetailsComponent -->
<g id="node38" class="node">
<title>OrderDetailsComponent</title>
<polygon fill="#ffffb3" stroke="black" points="5906.64,-84.8 5753.36,-84.8 5753.36,-48.8 5906.64,-48.8 5906.64,-84.8"/>
<text text-anchor="middle" x="5830" y="-62.6" font-family="Times,serif" font-size="14.00">OrderDetailsComponent</text>
</g>
<!-- OrderDetailsComponent&#45;&gt;OrdersModule -->
<g id="edge38" class="edge">
<title>OrderDetailsComponent&#45;&gt;OrdersModule</title>
<path fill="none" stroke="black" d="M5830,-84.83C5830,-105.57 5830,-136.8 5830,-136.8 5830,-136.8 5655.84,-136.8 5655.84,-136.8"/>
<polygon fill="black" stroke="black" points="5655.84,-133.3 5645.84,-136.8 5655.84,-140.3 5655.84,-133.3"/>
</g>
<!-- OrdersComponent -->
<g id="node39" class="node">
<title>OrdersComponent</title>
<polygon fill="#ffffb3" stroke="black" points="5734.93,-84.8 5615.07,-84.8 5615.07,-48.8 5734.93,-48.8 5734.93,-84.8"/>
<text text-anchor="middle" x="5675" y="-62.6" font-family="Times,serif" font-size="14.00">OrdersComponent</text>
</g>
<!-- OrdersComponent&#45;&gt;OrdersModule -->
<g id="edge39" class="edge">
<title>OrdersComponent&#45;&gt;OrdersModule</title>
<path fill="none" stroke="black" d="M5630.56,-84.81C5630.56,-84.81 5630.56,-114.65 5630.56,-114.65"/>
<polygon fill="black" stroke="black" points="5627.06,-114.65 5630.56,-124.65 5634.06,-114.65 5627.06,-114.65"/>
</g>
<!-- OrdersRoutingModule -->
<g id="node41" class="node">
<title>OrdersRoutingModule</title>
<polygon fill="#8dd3c7" stroke="black" points="5591.27,-84.8 5588.27,-88.8 5567.27,-88.8 5564.27,-84.8 5448.73,-84.8 5448.73,-48.8 5591.27,-48.8 5591.27,-84.8"/>
<text text-anchor="middle" x="5520" y="-62.6" font-family="Times,serif" font-size="14.00">OrdersRoutingModule</text>
</g>
<!-- OrdersRoutingModule&#45;&gt;OrdersModule -->
<g id="edge40" class="edge">
<title>OrdersRoutingModule&#45;&gt;OrdersModule</title>
<path fill="none" stroke="black" d="M5576.98,-84.81C5576.98,-84.81 5576.98,-114.65 5576.98,-114.65"/>
<polygon fill="black" stroke="black" points="5573.48,-114.65 5576.98,-124.65 5580.48,-114.65 5573.48,-114.65"/>
</g>
<!-- BasketSummaryComponent -->
<g id="node42" class="node">
<title>BasketSummaryComponent</title>
<polygon fill="#ffffb3" stroke="black" points="1962.88,-160.8 1789.12,-160.8 1789.12,-124.8 1962.88,-124.8 1962.88,-160.8"/>
<text text-anchor="middle" x="1876" y="-138.6" font-family="Times,serif" font-size="14.00">BasketSummaryComponent</text>
</g>
<!-- BasketSummaryComponent&#45;&gt;SharedModule -->
<g id="edge42" class="edge">
<title>BasketSummaryComponent&#45;&gt;SharedModule</title>
<path fill="none" stroke="black" d="M1963.12,-133.8C2018.31,-133.8 2079.34,-133.8 2079.34,-133.8 2079.34,-133.8 2079.34,-95.11 2079.34,-95.11"/>
<polygon fill="black" stroke="black" points="2082.84,-95.11 2079.34,-85.11 2075.84,-95.11 2082.84,-95.11"/>
</g>
<!-- OrderTotalsComponent -->
<g id="node43" class="node">
<title>OrderTotalsComponent</title>
<polygon fill="#ffffb3" stroke="black" points="1771.47,-160.8 1622.53,-160.8 1622.53,-124.8 1771.47,-124.8 1771.47,-160.8"/>
<text text-anchor="middle" x="1697" y="-138.6" font-family="Times,serif" font-size="14.00">OrderTotalsComponent</text>
</g>
<!-- OrderTotalsComponent&#45;&gt;SharedModule -->
<g id="edge43" class="edge">
<title>OrderTotalsComponent&#45;&gt;SharedModule</title>
<path fill="none" stroke="black" d="M1697,-124.5C1697,-106.53 1697,-81.8 1697,-81.8 1697,-81.8 1992.64,-81.8 1992.64,-81.8"/>
<polygon fill="black" stroke="black" points="1992.64,-85.3 2002.64,-81.8 1992.64,-78.3 1992.64,-85.3"/>
</g>
<!-- PagerComponent -->
<g id="node44" class="node">
<title>PagerComponent</title>
<polygon fill="#ffffb3" stroke="black" points="1604.71,-160.8 1491.29,-160.8 1491.29,-124.8 1604.71,-124.8 1604.71,-160.8"/>
<text text-anchor="middle" x="1548" y="-138.6" font-family="Times,serif" font-size="14.00">PagerComponent</text>
</g>
<!-- PagerComponent&#45;&gt;SharedModule -->
<g id="edge44" class="edge">
<title>PagerComponent&#45;&gt;SharedModule</title>
<path fill="none" stroke="black" d="M1548,-124.63C1548,-105.71 1548,-78.8 1548,-78.8 1548,-78.8 1992.76,-78.8 1992.76,-78.8"/>
<polygon fill="black" stroke="black" points="1992.76,-82.3 2002.76,-78.8 1992.76,-75.3 1992.76,-82.3"/>
</g>
<!-- PagingHeaderComponent -->
<g id="node45" class="node">
<title>PagingHeaderComponent</title>
<polygon fill="#ffffb3" stroke="black" points="1473.14,-160.8 1312.86,-160.8 1312.86,-124.8 1473.14,-124.8 1473.14,-160.8"/>
<text text-anchor="middle" x="1393" y="-138.6" font-family="Times,serif" font-size="14.00">PagingHeaderComponent</text>
</g>
<!-- PagingHeaderComponent&#45;&gt;SharedModule -->
<g id="edge45" class="edge">
<title>PagingHeaderComponent&#45;&gt;SharedModule</title>
<path fill="none" stroke="black" d="M1393,-124.49C1393,-104.65 1393,-75.8 1393,-75.8 1393,-75.8 1992.74,-75.8 1992.74,-75.8"/>
<polygon fill="black" stroke="black" points="1992.74,-79.3 2002.74,-75.8 1992.74,-72.3 1992.74,-79.3"/>
</g>
<!-- StepperComponent -->
<g id="node46" class="node">
<title>StepperComponent</title>
<polygon fill="#ffffb3" stroke="black" points="1295.1,-160.8 1170.9,-160.8 1170.9,-124.8 1295.1,-124.8 1295.1,-160.8"/>
<text text-anchor="middle" x="1233" y="-138.6" font-family="Times,serif" font-size="14.00">StepperComponent</text>
</g>
<!-- StepperComponent&#45;&gt;SharedModule -->
<g id="edge46" class="edge">
<title>StepperComponent&#45;&gt;SharedModule</title>
<path fill="none" stroke="black" d="M1233,-124.77C1233,-104.03 1233,-72.8 1233,-72.8 1233,-72.8 1992.61,-72.8 1992.61,-72.8"/>
<polygon fill="black" stroke="black" points="1992.61,-76.3 2002.61,-72.8 1992.61,-69.3 1992.61,-76.3"/>
</g>
<!-- TextInputComponent -->
<g id="node47" class="node">
<title>TextInputComponent</title>
<polygon fill="#ffffb3" stroke="black" points="1153.04,-160.8 1016.96,-160.8 1016.96,-124.8 1153.04,-124.8 1153.04,-160.8"/>
<text text-anchor="middle" x="1085" y="-138.6" font-family="Times,serif" font-size="14.00">TextInputComponent</text>
</g>
<!-- TextInputComponent&#45;&gt;SharedModule -->
<g id="edge47" class="edge">
<title>TextInputComponent&#45;&gt;SharedModule</title>
<path fill="none" stroke="black" d="M1085,-124.76C1085,-103.14 1085,-69.8 1085,-69.8 1085,-69.8 1992.72,-69.8 1992.72,-69.8"/>
<polygon fill="black" stroke="black" points="1992.72,-73.3 2002.72,-69.8 1992.72,-66.3 1992.72,-73.3"/>
</g>
<!-- ProductDetailsComponent -->
<g id="node54" class="node">
<title>ProductDetailsComponent</title>
<polygon fill="#ffffb3" stroke="black" points="6566.04,-84.8 6401.96,-84.8 6401.96,-48.8 6566.04,-48.8 6566.04,-84.8"/>
<text text-anchor="middle" x="6484" y="-62.6" font-family="Times,serif" font-size="14.00">ProductDetailsComponent</text>
</g>
<!-- ProductDetailsComponent&#45;&gt;ShopModule -->
<g id="edge54" class="edge">
<title>ProductDetailsComponent&#45;&gt;ShopModule</title>
<path fill="none" stroke="black" d="M6484,-85C6484,-109.16 6484,-148.8 6484,-148.8 6484,-148.8 6214.37,-148.8 6214.37,-148.8"/>
<polygon fill="black" stroke="black" points="6214.37,-145.3 6204.37,-148.8 6214.37,-152.3 6214.37,-145.3"/>
</g>
<!-- ProductItemComponent -->
<g id="node55" class="node">
<title>ProductItemComponent</title>
<polygon fill="#ffffb3" stroke="black" points="6383.04,-84.8 6232.96,-84.8 6232.96,-48.8 6383.04,-48.8 6383.04,-84.8"/>
<text text-anchor="middle" x="6308" y="-62.6" font-family="Times,serif" font-size="14.00">ProductItemComponent</text>
</g>
<!-- ProductItemComponent&#45;&gt;ShopModule -->
<g id="edge55" class="edge">
<title>ProductItemComponent&#45;&gt;ShopModule</title>
<path fill="none" stroke="black" d="M6308,-84.83C6308,-105.57 6308,-136.8 6308,-136.8 6308,-136.8 6214.4,-136.8 6214.4,-136.8"/>
<polygon fill="black" stroke="black" points="6214.4,-133.3 6204.4,-136.8 6214.4,-140.3 6214.4,-133.3"/>
</g>
<!-- ShopComponent -->
<g id="node56" class="node">
<title>ShopComponent</title>
<polygon fill="#ffffb3" stroke="black" points="6215.12,-84.8 6104.88,-84.8 6104.88,-48.8 6215.12,-48.8 6215.12,-84.8"/>
<text text-anchor="middle" x="6160" y="-62.6" font-family="Times,serif" font-size="14.00">ShopComponent</text>
</g>
<!-- ShopComponent&#45;&gt;ShopModule -->
<g id="edge56" class="edge">
<title>ShopComponent&#45;&gt;ShopModule</title>
<path fill="none" stroke="black" d="M6174.72,-84.81C6174.72,-84.81 6174.72,-114.65 6174.72,-114.65"/>
<polygon fill="black" stroke="black" points="6171.22,-114.65 6174.72,-124.65 6178.22,-114.65 6171.22,-114.65"/>
</g>
<!-- ShopRoutingModule -->
<g id="node58" class="node">
<title>ShopRoutingModule</title>
<polygon fill="#8dd3c7" stroke="black" points="6080.96,-84.8 6077.96,-88.8 6056.96,-88.8 6053.96,-84.8 5947.04,-84.8 5947.04,-48.8 6080.96,-48.8 6080.96,-84.8"/>
<text text-anchor="middle" x="6014" y="-62.6" font-family="Times,serif" font-size="14.00">ShopRoutingModule</text>
</g>
<!-- ShopRoutingModule&#45;&gt;ShopModule -->
<g id="edge58" class="edge">
<title>ShopRoutingModule&#45;&gt;ShopModule</title>
<path fill="none" stroke="black" d="M6014,-85C6014,-109.16 6014,-148.8 6014,-148.8 6014,-148.8 6105.8,-148.8 6105.8,-148.8"/>
<polygon fill="black" stroke="black" points="6105.8,-152.3 6115.8,-148.8 6105.8,-145.3 6105.8,-152.3"/>
</g>
</g>
</svg>
