<?xml version="1.0" encoding="UTF-8" standalone="no"?>
<!DOCTYPE svg PUBLIC "-//W3C//DTD SVG 1.1//EN"
 "http://www.w3.org/Graphics/SVG/1.1/DTD/svg11.dtd">
<!-- Generated by graphviz version 5.0.0 (20220707.1540)
 -->
<!-- Title: dependencies Pages: 1 -->
<svg width="459pt" height="174pt"
 viewBox="0.00 0.00 459.00 173.80" xmlns="http://www.w3.org/2000/svg" xmlns:xlink="http://www.w3.org/1999/xlink">
<g id="graph0" class="graph" transform="scale(1 1) rotate(0) translate(4 169.8)">
<title>dependencies</title>
<polygon fill="white" stroke="transparent" points="-4,4 -4,-169.8 455,-169.8 455,4 -4,4"/>
<text text-anchor="middle" x="225.5" y="-8.2" font-family="sans-serif" font-size="14.00">dependencies</text>
<g id="clust1" class="cluster">
<title>cluster_BasketModule</title>
<polygon fill="none" stroke="black" stroke-dasharray="1,5" points="8,-32.8 8,-157.8 443,-157.8 443,-32.8 8,-32.8"/>
</g>
<g id="clust2" class="cluster">
<title>cluster_BasketModule_declarations</title>
<polygon fill="none" stroke="black" points="299,-40.8 299,-92.8 435,-92.8 435,-40.8 299,-40.8"/>
</g>
<g id="clust4" class="cluster">
<title>cluster_BasketModule_imports</title>
<polygon fill="none" stroke="black" points="16,-40.8 16,-92.8 291,-92.8 291,-40.8 16,-40.8"/>
</g>
<!-- BasketComponent -->
<g id="node1" class="node">
<title>BasketComponent</title>
<polygon fill="#ffffb3" stroke="black" points="426.94,-84.8 307.06,-84.8 307.06,-48.8 426.94,-48.8 426.94,-84.8"/>
<text text-anchor="middle" x="367" y="-62.6" font-family="Times,serif" font-size="14.00">BasketComponent</text>
</g>
<!-- BasketModule -->
<g id="node2" class="node">
<title>BasketModule</title>
<polygon fill="#8dd3c7" stroke="black" points="260.66,-149.8 257.66,-153.8 236.66,-153.8 233.66,-149.8 163.34,-149.8 163.34,-113.8 260.66,-113.8 260.66,-149.8"/>
<text text-anchor="middle" x="212" y="-127.6" font-family="Times,serif" font-size="14.00">BasketModule</text>
</g>
<!-- BasketComponent&#45;&gt;BasketModule -->
<g id="edge1" class="edge">
<title>BasketComponent&#45;&gt;BasketModule</title>
<path fill="none" stroke="black" d="M367,-84.91C367,-104.14 367,-131.8 367,-131.8 367,-131.8 271.04,-131.8 271.04,-131.8"/>
<polygon fill="black" stroke="black" points="271.04,-128.3 261.04,-131.8 271.04,-135.3 271.04,-128.3"/>
</g>
<!-- BasketRoutingModule -->
<g id="node3" class="node">
<title>BasketRoutingModule</title>
<polygon fill="#8dd3c7" stroke="black" points="283.27,-84.8 280.27,-88.8 259.27,-88.8 256.27,-84.8 140.73,-84.8 140.73,-48.8 283.27,-48.8 283.27,-84.8"/>
<text text-anchor="middle" x="212" y="-62.6" font-family="Times,serif" font-size="14.00">BasketRoutingModule</text>
</g>
<!-- BasketRoutingModule&#45;&gt;BasketModule -->
<g id="edge2" class="edge">
<title>BasketRoutingModule&#45;&gt;BasketModule</title>
<path fill="none" stroke="black" d="M212,-84.91C212,-84.91 212,-103.79 212,-103.79"/>
<polygon fill="black" stroke="black" points="208.5,-103.79 212,-113.79 215.5,-103.79 208.5,-103.79"/>
</g>
<!-- SharedModule -->
<g id="node4" class="node">
<title>SharedModule</title>
<polygon fill="#8dd3c7" stroke="black" points="122.43,-84.8 119.43,-88.8 98.43,-88.8 95.43,-84.8 23.57,-84.8 23.57,-48.8 122.43,-48.8 122.43,-84.8"/>
<text text-anchor="middle" x="73" y="-62.6" font-family="Times,serif" font-size="14.00">SharedModule</text>
</g>
<!-- SharedModule&#45;&gt;BasketModule -->
<g id="edge3" class="edge">
<title>SharedModule&#45;&gt;BasketModule</title>
<path fill="none" stroke="black" d="M73,-84.91C73,-104.14 73,-131.8 73,-131.8 73,-131.8 152.99,-131.8 152.99,-131.8"/>
<polygon fill="black" stroke="black" points="152.99,-135.3 162.99,-131.8 152.99,-128.3 152.99,-135.3"/>
</g>
</g>
</svg>
