<?xml version="1.0" encoding="UTF-8" standalone="no"?>
<!DOCTYPE svg PUBLIC "-//W3C//DTD SVG 1.1//EN"
 "http://www.w3.org/Graphics/SVG/1.1/DTD/svg11.dtd">
<!-- Generated by graphviz version 5.0.0 (20220707.1540)
 -->
<!-- Title: dependencies Pages: 1 -->
<svg width="822pt" height="247pt"
 viewBox="0.00 0.00 822.00 246.80" xmlns="http://www.w3.org/2000/svg" xmlns:xlink="http://www.w3.org/1999/xlink">
<g id="graph0" class="graph" transform="scale(1 1) rotate(0) translate(4 242.8)">
<title>dependencies</title>
<polygon fill="white" stroke="transparent" points="-4,4 -4,-242.8 818,-242.8 818,4 -4,4"/>
<text text-anchor="middle" x="407" y="-8.2" font-family="sans-serif" font-size="14.00">dependencies</text>
<g id="clust1" class="cluster">
<title>cluster_CoreModule</title>
<polygon fill="none" stroke="black" stroke-dasharray="1,5" points="8,-32.8 8,-230.8 806,-230.8 806,-32.8 8,-32.8"/>
</g>
<g id="clust2" class="cluster">
<title>cluster_CoreModule_declarations</title>
<polygon fill="none" stroke="black" points="138,-40.8 138,-92.8 798,-92.8 798,-40.8 138,-40.8"/>
</g>
<g id="clust7" class="cluster">
<title>cluster_CoreModule_imports</title>
<polygon fill="none" stroke="black" points="16,-40.8 16,-92.8 130,-92.8 130,-40.8 16,-40.8"/>
</g>
<g id="clust8" class="cluster">
<title>cluster_CoreModule_exports</title>
<polygon fill="none" stroke="black" points="71,-170.8 71,-222.8 743,-222.8 743,-170.8 71,-170.8"/>
</g>
<!-- MainHeaderComponent -->
<g id="node1" class="node">
<title>MainHeaderComponent</title>
<polygon fill="#ffffb3" stroke="black" points="789.8,-84.8 638.2,-84.8 638.2,-48.8 789.8,-48.8 789.8,-84.8"/>
<text text-anchor="middle" x="714" y="-62.6" font-family="Times,serif" font-size="14.00">MainHeaderComponent</text>
</g>
<!-- CoreModule -->
<g id="node5" class="node">
<title>CoreModule</title>
<polygon fill="#8dd3c7" stroke="black" points="424.27,-149.8 421.27,-153.8 400.27,-153.8 397.27,-149.8 337.73,-149.8 337.73,-113.8 424.27,-113.8 424.27,-149.8"/>
<text text-anchor="middle" x="381" y="-127.6" font-family="Times,serif" font-size="14.00">CoreModule</text>
</g>
<!-- MainHeaderComponent&#45;&gt;CoreModule -->
<g id="edge1" class="edge">
<title>MainHeaderComponent&#45;&gt;CoreModule</title>
<path fill="none" stroke="black" d="M686.88,-84.91C686.88,-104.14 686.88,-131.8 686.88,-131.8 686.88,-131.8 434.5,-131.8 434.5,-131.8"/>
<polygon fill="black" stroke="black" points="434.5,-128.3 424.5,-131.8 434.5,-135.3 434.5,-128.3"/>
</g>
<!-- MainNavbarComponent -->
<g id="node2" class="node">
<title>MainNavbarComponent</title>
<polygon fill="#ffffb3" stroke="black" points="620.08,-84.8 467.92,-84.8 467.92,-48.8 620.08,-48.8 620.08,-84.8"/>
<text text-anchor="middle" x="544" y="-62.6" font-family="Times,serif" font-size="14.00">MainNavbarComponent</text>
</g>
<!-- MainNavbarComponent&#45;&gt;CoreModule -->
<g id="edge2" class="edge">
<title>MainNavbarComponent&#45;&gt;CoreModule</title>
<path fill="none" stroke="black" d="M515.38,-84.83C515.38,-101.2 515.38,-122.8 515.38,-122.8 515.38,-122.8 434.63,-122.8 434.63,-122.8"/>
<polygon fill="black" stroke="black" points="434.63,-119.3 424.63,-122.8 434.63,-126.3 434.63,-119.3"/>
</g>
<!-- NotFoundComponent -->
<g id="node3" class="node">
<title>NotFoundComponent</title>
<polygon fill="#ffffb3" stroke="black" points="450.12,-84.8 311.88,-84.8 311.88,-48.8 450.12,-48.8 450.12,-84.8"/>
<text text-anchor="middle" x="381" y="-62.6" font-family="Times,serif" font-size="14.00">NotFoundComponent</text>
</g>
<!-- NotFoundComponent&#45;&gt;CoreModule -->
<g id="edge3" class="edge">
<title>NotFoundComponent&#45;&gt;CoreModule</title>
<path fill="none" stroke="black" d="M381,-84.91C381,-84.91 381,-103.79 381,-103.79"/>
<polygon fill="black" stroke="black" points="377.5,-103.79 381,-113.79 384.5,-103.79 377.5,-103.79"/>
</g>
<!-- ServerErrorComponent -->
<g id="node4" class="node">
<title>ServerErrorComponent</title>
<polygon fill="#ffffb3" stroke="black" points="293.91,-84.8 146.09,-84.8 146.09,-48.8 293.91,-48.8 293.91,-84.8"/>
<text text-anchor="middle" x="220" y="-62.6" font-family="Times,serif" font-size="14.00">ServerErrorComponent</text>
</g>
<!-- ServerErrorComponent&#45;&gt;CoreModule -->
<g id="edge4" class="edge">
<title>ServerErrorComponent&#45;&gt;CoreModule</title>
<path fill="none" stroke="black" d="M270.45,-84.83C270.45,-101.2 270.45,-122.8 270.45,-122.8 270.45,-122.8 327.62,-122.8 327.62,-122.8"/>
<polygon fill="black" stroke="black" points="327.62,-126.3 337.62,-122.8 327.62,-119.3 327.62,-126.3"/>
</g>
<!-- MainHeaderComponent  -->
<g id="node7" class="node">
<title>MainHeaderComponent </title>
<polygon fill="#fb8072" stroke="black" points="735.3,-214.8 580.7,-214.8 580.7,-178.8 735.3,-178.8 735.3,-214.8"/>
<text text-anchor="middle" x="658" y="-192.6" font-family="Times,serif" font-size="14.00">MainHeaderComponent </text>
</g>
<!-- CoreModule&#45;&gt;MainHeaderComponent  -->
<g id="edge6" class="edge">
<title>CoreModule&#45;&gt;MainHeaderComponent </title>
<path fill="none" stroke="black" stroke-dasharray="5,2" d="M424.33,-140.8C488.25,-140.8 600.32,-140.8 600.32,-140.8 600.32,-140.8 600.32,-168.77 600.32,-168.77"/>
<polygon fill="black" stroke="black" points="596.82,-168.77 600.32,-178.77 603.82,-168.77 596.82,-168.77"/>
</g>
<!-- MainNavbarComponent  -->
<g id="node8" class="node">
<title>MainNavbarComponent </title>
<polygon fill="#fb8072" stroke="black" points="562.58,-214.8 407.42,-214.8 407.42,-178.8 562.58,-178.8 562.58,-214.8"/>
<text text-anchor="middle" x="485" y="-192.6" font-family="Times,serif" font-size="14.00">MainNavbarComponent </text>
</g>
<!-- CoreModule&#45;&gt;MainNavbarComponent  -->
<g id="edge7" class="edge">
<title>CoreModule&#45;&gt;MainNavbarComponent </title>
<path fill="none" stroke="black" stroke-dasharray="5,2" d="M415.8,-149.91C415.8,-149.91 415.8,-168.79 415.8,-168.79"/>
<polygon fill="black" stroke="black" points="412.3,-168.79 415.8,-178.79 419.3,-168.79 412.3,-168.79"/>
</g>
<!-- NotFoundComponent  -->
<g id="node9" class="node">
<title>NotFoundComponent </title>
<polygon fill="#fb8072" stroke="black" points="388.62,-214.8 247.38,-214.8 247.38,-178.8 388.62,-178.8 388.62,-214.8"/>
<text text-anchor="middle" x="318" y="-192.6" font-family="Times,serif" font-size="14.00">NotFoundComponent </text>
</g>
<!-- CoreModule&#45;&gt;NotFoundComponent  -->
<g id="edge8" class="edge">
<title>CoreModule&#45;&gt;NotFoundComponent </title>
<path fill="none" stroke="black" stroke-dasharray="5,2" d="M363.21,-149.91C363.21,-149.91 363.21,-168.79 363.21,-168.79"/>
<polygon fill="black" stroke="black" points="359.71,-168.79 363.21,-178.79 366.71,-168.79 359.71,-168.79"/>
</g>
<!-- ServerErrorComponent  -->
<g id="node10" class="node">
<title>ServerErrorComponent </title>
<polygon fill="#fb8072" stroke="black" points="229.41,-214.8 78.59,-214.8 78.59,-178.8 229.41,-178.8 229.41,-214.8"/>
<text text-anchor="middle" x="154" y="-192.6" font-family="Times,serif" font-size="14.00">ServerErrorComponent </text>
</g>
<!-- CoreModule&#45;&gt;ServerErrorComponent  -->
<g id="edge9" class="edge">
<title>CoreModule&#45;&gt;ServerErrorComponent </title>
<path fill="none" stroke="black" stroke-dasharray="5,2" d="M337.66,-140.8C280.72,-140.8 187.88,-140.8 187.88,-140.8 187.88,-140.8 187.88,-168.77 187.88,-168.77"/>
<polygon fill="black" stroke="black" points="184.38,-168.77 187.88,-178.77 191.38,-168.77 184.38,-168.77"/>
</g>
<!-- SharedModule -->
<g id="node6" class="node">
<title>SharedModule</title>
<polygon fill="#8dd3c7" stroke="black" points="122.43,-84.8 119.43,-88.8 98.43,-88.8 95.43,-84.8 23.57,-84.8 23.57,-48.8 122.43,-48.8 122.43,-84.8"/>
<text text-anchor="middle" x="73" y="-62.6" font-family="Times,serif" font-size="14.00">SharedModule</text>
</g>
<!-- SharedModule&#45;&gt;CoreModule -->
<g id="edge5" class="edge">
<title>SharedModule&#45;&gt;CoreModule</title>
<path fill="none" stroke="black" d="M100.38,-84.91C100.38,-104.14 100.38,-131.8 100.38,-131.8 100.38,-131.8 327.46,-131.8 327.46,-131.8"/>
<polygon fill="black" stroke="black" points="327.46,-135.3 337.46,-131.8 327.46,-128.3 327.46,-135.3"/>
</g>
</g>
</svg>
